<?xml version="1.0" standalone="no"?>
<!DOCTYPE svg PUBLIC "-//W3C//DTD SVG 1.1//EN" "http://www.w3.org/Graphics/SVG/1.1/DTD/svg11.dtd" >
<svg xmlns="http://www.w3.org/2000/svg">
<metadata>Generated by IcoMoon</metadata>
<defs>
<font id="alk-icon" horiz-adv-x="1024">
<font-face units-per-em="1024" ascent="960" descent="-64" />
<missing-glyph horiz-adv-x="1024" />
<glyph unicode="&#x20;" horiz-adv-x="512" d="" />
<glyph unicode="&#xe900;" glyph-name="accesorios-tv" d="M496.55 308.966c0 68.253-55.331 123.584-123.584 123.584-68.256 0-123.587-55.331-123.587-123.584 0-68.256 55.332-123.587 123.587-123.587 68.253 0 123.584 55.331 123.584 123.587zM558.346 308.966c0-102.384-82.998-185.379-185.379-185.379-102.383 0-185.38 82.995-185.38 185.379 0 102.381 82.997 185.379 185.38 185.379 102.381 0 185.379-82.998 185.379-185.379zM620.138 308.966c0 136.509-110.662 247.171-247.171 247.171-136.51 0-247.173-110.662-247.173-247.171 0-136.512 110.663-247.174 247.173-247.174 136.509 0 247.171 110.662 247.171 247.174zM681.93 308.966c0-170.637-138.326-308.966-308.963-308.966s-308.966 138.33-308.966 308.966c0 170.637 138.329 308.963 308.966 308.963s308.963-138.326 308.963-308.963zM898.208 741.517c0 17.064-13.834 30.897-30.899 30.897v-61.793c17.066 0 30.899 13.833 30.899 30.896zM311.172 710.621h247.173v61.793h-247.173v-61.793zM960 741.517c0-51.191-41.498-92.69-92.691-92.69h-5.37c-12.733-35.986-46.973-61.794-87.318-61.794h-61.792c-40.349 0-74.589 25.808-87.322 61.794h-314.335c0-17.064-13.833-30.898-30.897-30.898s-30.897 13.834-30.897 30.898v123.586h-15.448c-34.127 0-61.793-27.666-61.793-61.793v-123.587c0-17.062-13.833-30.896-30.897-30.896s-30.896 13.834-30.896 30.896v123.587c0 68.255 55.331 123.586 123.586 123.586h386.207c0 34.127 27.667 61.793 61.792 61.793h92.691c40.346 0 74.586-25.809 87.318-61.793h5.37c51.194 0 92.691-41.499 92.691-92.69zM681.93 834.207c0-34.128-27.664-61.793-61.792-61.793v-61.793c0 17.064 13.834 30.896 30.896 30.896 17.066 0 30.896-13.833 30.896-30.896v-30.897c0-17.064 13.834-30.897 30.899-30.897h61.792c17.062 0 30.896 13.833 30.896 30.897v123.586c0 17.064-13.834 30.897-30.896 30.897h-92.691z" />
<glyph unicode="&#xe901;" glyph-name="accesorios" d="M629.344 718.402c0 29.882-0.042 49.844-1.626 65.031-1.523 14.603-4.211 21.172-7.158 25.469-3.824 5.585-8.79 10.45-14.624 14.25-4.656 3.036-11.76 5.739-26.998 7.25-15.728 1.558-36.346 1.594-66.938 1.594-30.595 0-51.213-0.035-66.938-1.594-15.226-1.51-22.314-4.185-26.97-7.219-5.834-3.799-10.797-8.666-14.624-14.25-2.947-4.297-5.632-10.892-7.158-25.5-1.584-15.187-1.622-35.149-1.622-65.031v-20.812h-64v20.812c0 28.516-0.042 52.381 1.968 71.656 2.070 19.848 6.598 38.393 18.032 55.062 8.618 12.572 19.648 23.321 32.435 31.656 16.845 10.982 35.52 15.318 55.626 17.313 19.616 1.945 43.955 1.906 73.251 1.906 29.293 0 53.632 0.037 73.248-1.906 20.109-1.994 38.781-6.331 55.626-17.313l4.72-3.219c10.803-7.812 20.173-17.434 27.718-28.437 11.43-16.669 15.994-35.214 18.061-55.062 2.010-19.275 1.971-43.141 1.971-71.656v-20.812h-64v20.812zM702.73 750.396c53.363-0.007 98.522-42.529 97.248-96.375l-0.25-5.25-7.843-98.969-0.032-0.061c-6.221-76.976-32.902-150.963-77.312-214.72l-25.562-36.845-6-8c-14.33-17.926-32.394-32.65-52.97-43.187-23.488-12.026-49.587-18.211-76.032-18.157l-83.936-0.029c-26.438-0.051-52.522 6.192-76 18.218-20.563 10.534-38.618 25.242-52.938 43.155l-6 8-25.626 36.813c-14.958 21.472-27.919 44.102-38.75 67.626-7.388 16.051-0.363 35.046 15.688 42.438 16.053 7.392 35.047 0.365 42.439-15.69 9.248-20.086 20.326-39.44 33.123-57.811l25.562-36.688 3.533-4.717c8.614-10.781 19.552-19.715 32.125-26.157 14.371-7.363 30.432-11.222 46.749-11.187h84.125c16.323-0.042 32.374 3.798 46.752 11.155 14.374 7.36 26.611 18.003 35.686 30.906l25.501 36.688c38 54.547 60.758 117.744 66.061 183.344l7.846 98.938c1.258 16.067-12.352 32.556-33.187 32.563h-381.44c-20.835-0.006-34.444-16.495-33.187-32.563l7.844-98.938 1.969-18.624c0.818-6.192 1.81-12.368 2.938-18.502 3.188-17.373-8.313-34.051-25.687-37.248-17.381-3.197-34.053 8.307-37.25 25.686-2.643 14.371-4.567 28.899-5.75 43.533l-0.031 0.061-7.844 98.969c-4.447 56.304 41.915 101.619 96.999 101.625h381.44zM480.003 32.003v208c0.003 17.667 14.33 31.994 32 32 17.67 0 31.997-14.33 32-32v-208c0-17.674-14.33-32-32-32-17.67 0.003-32 14.33-32 32zM554.659 625.597c17.674 0 32-14.33 32-32 0-17.674-14.326-32-32-32h-85.312c-17.674 0-32 14.326-32 32 0 17.67 14.326 32 32 32h85.312z" />
<glyph unicode="&#xe902;" glyph-name="asistente-voz" d="M653.536 896c14.214 0 26.701-9.543 30.55-23.344l142.778-512 0.867-4.125c5.728-40.442 7.373-104.989-5.885-170.157-13.184-64.781-42.118-134.925-101.664-179.968-5.491-4.154-12.189-6.406-19.053-6.406h-380.742c-6.608 0.003-13.059 2.096-18.436 5.968-48.328 34.826-121.589 148.387-108.385 348.157l0.372 3.312c0.185 1.085 0.448 2.157 0.743 3.219l142.778 512 1.827 4.969c5.162 11.068 16.259 18.369 28.694 18.375h285.555zM267.093 384h85.022c17.523 0 31.728-14.326 31.728-32s-14.205-32-31.728-32h-96.518c-3.097-149.974 48.814-230.006 76.284-256h358.122c37.117 32.15 58.768 81.574 69.686 135.219 8.88 43.638 10.042 87.341 7.933 120.781h-304.458c-17.517 0.006-31.728 14.333-31.728 32s14.211 31.994 31.728 32h291.29l-124.931 448h-237.501l-124.93-448zM507.798 538.688c19.126 1.645 36.125-4.701 52.829-16.435 14.378-10.102 17.914-30.032 7.901-44.531-10.016-14.502-29.776-18.070-44.154-7.968-8.506 5.974-11.008 5.203-11.184 5.187-0.966-0.083-2.829-0.426-6.477-1.782-3.859-1.434-8.157-3.398-14.656-6.342-15.981-7.242-34.771-0.054-41.955 16.061-7.178 16.118-0.048 35.069 15.926 42.314 10.486 4.749 25.555 12.106 41.77 13.498zM509.75 641.033c37.773 0.936 73.114-12.819 112.97-37.843 14.877-9.341 19.424-29.091 10.163-44.096-9.261-14.995-28.816-19.584-43.69-10.25-34.832 21.875-57.674 28.691-77.894 28.189-21.008-0.522-44.31-9.002-80.406-29.062-15.344-8.522-34.643-2.88-43.101 12.592-8.454 15.478-2.858 34.941 12.49 43.469 37.933 21.085 72.474 36.083 109.469 37.001zM479.043 128v128c0 17.674 14.205 32 31.728 32s31.728-14.326 31.728-32v-128c0-17.674-14.205-32-31.728-32s-31.728 14.326-31.728 32zM352.131 160v64c0 17.674 14.205 32 31.728 32s31.728-14.326 31.728-32v-64c0-17.674-14.205-32-31.728-32s-31.728 14.326-31.728 32zM605.958 160v64c0 17.674 14.205 32 31.728 32s31.728-14.326 31.728-32v-64c0-17.674-14.205-32-31.728-32s-31.728 14.326-31.728 32z" />
<glyph unicode="&#xe903;" glyph-name="aspiradora" d="M774.838 694.247c0 23.791-8.112 46.805-23.334 63.612-14.816 16.355-38.045 28.695-72.246 28.696-34.202 0-57.427-12.34-72.246-28.696-15.226-16.807-23.331-39.818-23.331-63.612v-256.401h-59.734v256.401c0 37.744 12.819 76.273 39.405 105.619 26.995 29.792 66.49 48.227 115.907 48.227 49.418-0.002 88.915-18.433 115.91-48.227 26.586-29.346 39.402-67.876 39.402-105.619v-492.308h-59.731v492.308zM914.451 232.71l2.771-0.122c13.757-1.309 25.005-12.291 26.835-26.653l15.69-123.075c1.117-8.781-1.507-17.622-7.174-24.282-5.667-6.656-13.834-10.483-22.429-10.486h-250.893c-8.598 0-16.787 3.827-22.458 10.486-5.664 6.656-8.262 15.504-7.146 24.282l15.664 123.075 0.496 2.826c3.050 13.882 15.078 23.949 29.136 23.949h219.507zM713.29 109.632h182.787l-7.818 61.539h-167.123l-7.846-61.539zM126.72 442.957v133.443c0 39.914 16.175 77.877 44.45 105.619 28.225 27.691 66.208 42.999 105.525 42.999 168.163 0 306.979-134.132 306.979-302.676v-341.136c0-19.875-16.013-33.114-32.259-33.114h-332.119c-16.489 0.006-29.866 13.782-29.867 30.771s13.377 30.762 29.867 30.768h304.644v312.71c0 131.766-109.293 241.137-247.244 241.137-24.391 0-47.517-9.514-64.341-26.020-16.773-16.461-25.9-38.464-25.9-61.059v-133.443c-0.004-16.992-13.374-30.771-29.867-30.771s-29.862 13.779-29.867 30.771zM314.891 201.939c0 49.581-41.408 92.304-95.579 92.307-54.174 0-95.579-42.726-95.579-92.307 0-49.584 41.388-92.307 95.562-92.307 54.171 0.003 95.596 42.726 95.596 92.307zM374.624 201.939c0-86.365-70.948-153.843-155.329-153.846-84.383 0-155.295 67.482-155.295 153.846s70.929 153.846 155.312 153.846c84.381-0.003 155.312-67.485 155.312-153.846zM273.066 304.496v389.753c0 16.993 13.372 30.769 29.867 30.769s29.867-13.776 29.867-30.769v-389.753c-0.006-16.989-13.376-30.771-29.867-30.771s-29.861 13.782-29.867 30.771z" />
<glyph unicode="&#xe904;" glyph-name="audifonos" d="M352 380.992c0 1.603-1.302 2.902-2.906 2.906h-61.094c-17.673 0-32-14.323-32-31.994v-255.93c0-17.667 14.327-31.99 32-31.99h32c17.674 0 32 14.323 32 31.99v180.326c0.006 17.664 14.33 31.99 32 31.99s31.994-14.326 32-31.99v-180.326c0-53.005-42.979-95.974-96-95.974h-32c-53.019 0-96 42.97-96 95.974v255.93c0 53.005 42.981 95.974 96 95.974h61.094c36.95 0 66.906-29.946 66.906-66.886 0-17.67-14.326-31.994-32-31.994s-32 14.323-32 31.994zM768 351.904c0 17.67-14.326 31.994-32 31.994h-32c-17.674 0-32-14.323-32-31.994v-255.93c0-17.667 14.326-31.99 32-31.99h32c17.674 0 32 14.323 32 31.99v255.93zM832 95.974c0-53.005-42.979-95.974-96-95.974h-32c-53.021 0-96 42.97-96 95.974v255.93c0 53.005 42.979 95.974 96 95.974h32c53.021 0 96-42.97 96-95.974v-255.93zM64 223.939v255.93c0 67.328 22.556 167.411 90.094 252.964 68.506 86.775 181.404 156.099 356.562 162.862 69.434 2.892 174.064-14.219 265.533-75.324 92.915-62.080 170.134-168.228 183.718-337.94 0.067-0.848 0.093-1.712 0.093-2.563v-255.93c-0.003-17.667-14.326-31.99-32-31.99s-31.997 14.323-32 31.99v254.4c-12.237 149.571-78.874 237.752-155.376 288.859-78.128 52.194-168.714 67.045-227.28 64.608h-0.125c-157.562-6.061-252.628-67.328-308.907-138.619-57.26-72.538-76.313-158.013-76.313-213.318v-255.93c-0.002-17.667-14.328-31.99-32-31.99s-31.998 14.323-32 31.99z" />
<glyph unicode="&#xe905;" glyph-name="audio-portable" d="M259.368 166.342c7.742-17.133 23.533-41.869 47.566-62.717 25.946-22.509 60.266-39.626 104.013-39.626h216.448c18.131 2.426 47.654 10.544 75.296 27.344 27.040 16.435 50.688 40.131 61.939 73.53v23.44c-20.029-8.333-43.091-15.12-66.445-20.595-57.674-13.523-123.766-20.912-167.107-23.654l-0.032 0.029c-123.514-8.96-214.365 16.81-271.678 47.283v-25.034zM562.525 352c18.605 0 33.686-14.326 33.686-32s-15.082-32-33.686-32h-101.050c-18.605 0-33.686 14.326-33.686 32s15.082 32 33.686 32h101.050zM478.317 480v32h-50.528c-18.602 0-33.683 14.326-33.683 32s15.082 32 33.683 32h50.528v32c0 17.674 15.078 32 33.683 32s33.683-14.326 33.683-32v-32h50.528c18.602 0 33.683-14.326 33.683-32s-15.082-32-33.683-32h-50.528v-32c0-17.674-15.078-32-33.683-32s-33.683 14.326-33.683 32zM764.63 528v176c0 10.008-2.912 25.494-11.248 42.5-4.909-4.79-10.125-9.188-15.526-13.125-19.664-14.329-43.795-25.2-67.862-33.469-48.208-16.562-102.682-24.957-138.355-27.781-131.901-10.442-217.796 31.397-263.125 74.281-5.838-12.301-9.145-26.311-9.145-42.406v-434.938c29.908-25.622 116.417-72.147 266.875-61.155l0.362 0.029c40.87 2.589 102.787 9.597 155.427 21.939 26.477 6.208 48.944 13.37 64.87 21.187 11.354 5.574 15.952 9.862 17.728 11.811v121.126c0 17.674 15.082 32 33.686 32 18.602 0 33.683-14.326 33.683-32v-224c0-2.97-0.426-5.926-1.283-8.781-16.275-54.115-53.555-90.589-91.709-113.782-37.731-22.934-77.974-33.984-104.934-37.187-1.386-0.163-2.781-0.25-4.179-0.25h-218.947c-64.035 0-113.913 25.552-149.441 56.374-35.026 30.387-57.257 66.765-67.368 92.374-1.418 3.594-2.138 7.414-2.138 11.251v544c0 50.406 21.336 89.693 51.875 118.656 53.28 50.526 133.908 69.481 181.117 73.219l2.797 0.125h202.106c2.218 0 4.438-0.212 6.611-0.625 152.435-28.965 195.494-135.434 195.494-191.375v-176c0-17.674-15.082-32-33.683-32-18.605 0-33.686 14.326-33.686 32zM429.302 832c-32.544-2.775-79.6-14.239-115.822-37.563 28.868-28.793 94.6-67.901 212.564-58.563 31.693 2.509 79.965 10.115 121.021 24.219 20.557 7.062 37.68 15.198 49.802 24.031 6.438 4.691 10.691 9.060 13.488 12.937-20.25 14.882-47.542 27.604-84.080 34.938h-196.973z" />
<glyph unicode="&#xe906;" glyph-name="audio-hogar" d="M256 763.437v100.563c0 17.673 14.327 32 32 32h448c17.674 0 32-14.327 32-32v-704c0-17.674-14.326-32-32-32h-448c-17.673 0-32 14.326-32 32v469.344c0.006 17.668 14.33 32 32 32s31.994-14.332 32-32v-437.344h384v640h-384v-68.563c0-17.673-14.327-32-32-32s-32 14.327-32 32zM608 576c0 53.021-42.979 96-96 96s-96-42.979-96-96c0-53.021 42.979-96 96-96s96 42.979 96 96zM672 576c0-88.365-71.635-160-160-160s-160 71.635-160 160c0 88.365 71.635 160 160 160s160-71.635 160-160zM544 320c0-17.674-14.326-32-32-32s-32 14.326-32 32c0 17.674 14.326 32 32 32s32-14.326 32-32zM624 64c17.674 0 32-14.326 32-32s-14.326-32-32-32h-208c-17.674 0-32 14.326-32 32s14.326 32 32 32h208z" />
<glyph unicode="&#xe907;" glyph-name="audio" d="M480 128v160c0 17.674 14.326 32 32 32s32-14.326 32-32v-160c0-17.674-14.326-32-32-32s-32 14.326-32 32zM272 288v320c0 17.674 14.327 32 32 32s32-14.326 32-32v-320c0-17.674-14.326-32-32-32s-32 14.326-32 32zM688 288v320c0 17.674 14.326 32 32 32s32-14.326 32-32v-320c0-17.674-14.326-32-32-32s-32 14.326-32 32zM64 352v192c0 17.674 14.327 32 32 32s32-14.326 32-32v-192c0-17.674-14.327-32-32-32s-32 14.326-32 32zM896 352v192c0 17.674 14.326 32 32 32s32-14.326 32-32v-192c0-17.674-14.326-32-32-32s-32 14.326-32 32zM480 416v352c0 17.673 14.326 32 32 32s32-14.327 32-32v-352c0-17.674-14.326-32-32-32s-32 14.326-32 32z" />
<glyph unicode="&#xe908;" glyph-name="mouse" d="M768 320v256c0 141.385-114.614 256-256 256s-256-114.615-256-256v-256c0-141.386 114.614-256 256-256v-64c-171.206 0-311.023 134.454-319.594 303.533l-0.406 16.467v256c0 176.731 143.27 320 320 320s320-143.269 320-320v-256l-0.406-16.467c-8.57-169.078-148.387-303.533-319.594-303.533v64c141.386 0 256 114.614 256 256zM544 512v64c0 17.674-14.326 32-32 32s-32-14.326-32-32v-64c0-17.674 14.326-32 32-32v-64c-53.021 0-96 42.979-96 96v64c0 53.021 42.979 96 96 96s96-42.979 96-96v-64c0-53.021-42.979-96-96-96v64c17.674 0 32 14.326 32 32zM480 656v192c0 17.673 14.326 32 32 32s32-14.327 32-32v-192c0-17.674-14.326-32-32-32s-32 14.326-32 32z" />
<glyph unicode="&#xe909;" glyph-name="usb-cable" d="M597.622 896c17.194 0 31.133-14.327 31.133-32v-128h31.136c17.197 0 31.136-14.327 31.136-32s-13.939-32-31.136-32h-264.646v-320h233.51v256c0 17.674 13.942 32 31.136 32 17.197 0 31.136-14.326 31.136-32v-288c0-17.674-13.939-32-31.136-32v-64c0-17.674-13.939-32-31.136-32h-31.133v-128h171.242c17.197 0 31.136-14.326 31.136-32s-13.939-32-31.136-32h-202.378c-17.197 0-31.136 14.326-31.136 32v160h-15.568v-160c0-17.674-13.939-32-31.133-32h-233.515c-17.196 0-31.135 14.326-31.135 32s13.94 32 31.135 32h202.379v128h-46.704c-17.194 0-31.133 14.326-31.133 32v64h-15.568c-17.197 0-31.136 14.326-31.136 32v384c0 17.673 13.939 32 31.136 32h15.568v128c0 17.673 13.939 32 31.133 32h186.813zM441.946 256h155.677v32h-155.677v-32zM546.541 632.595c13.21 11.312 32.867 9.479 43.875-4.096s9.222-33.779-3.984-45.094l-41.261-35.312 26.422-4.531c11.078-1.898 20.304-9.779 24.144-20.624 3.837-10.851 1.686-22.982-5.626-31.75l-93.405-112c-11.19-13.418-30.819-14.97-43.875-3.469s-14.566 31.677-3.376 45.094l57.498 68.97-38.979 6.656c-12.006 2.054-21.747 11.114-24.934 23.187-3.184 12.074 0.746 24.96 10.096 32.97l93.405 80zM441.946 736h124.541v96h-124.541v-96z" />
<glyph unicode="&#xe90a;" glyph-name="armario" d="M272 112h-80v-48h80v48zM832 112h-80v-48h80v48zM352 448v128c0 17.674 14.326 32 32 32s32-14.326 32-32v-128c0-17.674-14.326-32-32-32s-32 14.326-32 32zM608 448v128c0 17.674 14.326 32 32 32s32-14.326 32-32v-128c0-17.674-14.326-32-32-32s-32 14.326-32 32zM832 768v64h-288v-656h288v464c0 17.673 14.326 32 32 32s32-14.327 32-32v-576c0-35.347-28.653-64-64-64h-80c-35.347 0-64 28.653-64 64v48h-352v-48c0-35.347-28.654-64-64-64h-80c-35.346 0-64 28.653-64 64v768c0 35.346 28.654 64 64 64h640c35.347 0 64-28.654 64-64v-64c0-17.673-14.326-32-32-32s-32 14.327-32 32zM192 176h288v656h-288v-656z" />
<glyph unicode="&#xe90b;" glyph-name="bancos-plataformas" d="M69.17 576v64c0 53.019 42.204 96 94.266 96h31.422c17.354 0 31.422-14.327 31.422-32s-14.068-32-31.422-32h-31.422c-17.354 0-31.422-14.327-31.422-32v-64c0-17.674 14.068-32 31.422-32h691.281c17.354 0 31.421 14.326 31.421 32v64c0 17.673-14.067 32-31.421 32h-534.173c-17.353 0-31.421 14.327-31.421 32s14.068 32 31.421 32h534.173c52.061 0 94.266-42.981 94.266-96v-64c0-53.021-42.205-96-94.266-96h-691.281c-52.061 0-94.266 42.979-94.266 96zM838.73 448c42.086 0 79.082-28.413 90.646-69.626l26.941-96c17.203-61.325-28.019-122.371-90.646-122.374h-42.374c-52.061 0-94.266 42.979-94.266 96 0 17.674-14.070 32-31.424 32h-345.638c-17.354 0-31.424-14.326-31.424-32 0-53.021-42.203-96-94.265-96h-67.938c-65.183 0.003-110.692 65.766-88.773 128.282l33.662 96c13.398 38.205 48.939 63.715 88.773 63.718h646.726zM791.872 256c0-17.674 14.070-32 31.424-32h42.374c20.87 0.003 35.952 20.346 30.227 40.781l-26.944 96c-3.853 13.738-16.195 23.219-30.224 23.219h-646.726c-13.276-0.003-25.116-8.518-29.581-21.251l-33.662-96c-7.3-20.835 7.857-42.746 29.58-42.749h67.938c17.354 0 31.422 14.326 31.422 32 0 53.021 42.204 96 94.267 96h345.638c52.064 0 94.266-42.979 94.266-96z" />
<glyph unicode="&#xe90c;" glyph-name="banera" d="M854.381 406.397c-0.003 0.317 0.003 0.515 0 0.627-0.15 2.32-1.136 4.509-2.781 6.154-1.648 1.651-3.862 2.63-6.189 2.784h-666.842c-2.324-0.154-4.509-1.136-6.156-2.784-1.647-1.645-2.629-3.83-2.781-6.154-0.003-0.115-0.028-0.33-0.031-0.656-0.008-0.762 0-1.776 0-3.44 0-8.362-0.008-14.307 0.062-19.155l0.5-12.595v-0.125c7.664-121.091 111.708-229.171 232.468-241.437 8.093-0.81 12.637-0.992 23.344-1.405 30.259-1.114 59.478-1.782 85.971-1.782 28.694 0.074 57.386 0.653 86.061 1.782 10.701 0.413 15.187 0.566 23.251 1.405l0.093 0.032c120.73 12.195 224.822 120.282 232.531 241.405l0.438 12.688c0.064 4.877 0.093 10.838 0.093 19.187 0 1.693-0.022 2.714-0.032 3.469zM918.413 402.928c0-16.131 0.003-25.462-0.656-35.904-9.693-152.323-138.029-285.658-289.907-301.034l0.032-0.029c-10.32-1.075-16.611-1.27-27.376-1.69l0.032-0.032c-29.472-1.158-58.976-1.766-88.467-1.843h-0.064c-27.562 0-57.696 0.714-88.467 1.843h-0.064c-10.752 0.419-16.976 0.669-27.187 1.69-151.892 15.382-280.286 148.634-290 300.938l-0.594 15.936c-0.085 5.686-0.094 12.067-0.094 20.125 0 2.704-0.005 5.578 0.156 8.157v0.093c1.161 17.83 8.773 34.618 21.406 47.251s29.421 20.246 47.25 21.408h0.156c2.578 0.154 5.303 0.154 8.094 0.154h658.688c2.746 0 5.514 0 8.093-0.154h0.125c17.834-1.162 34.646-8.771 47.283-21.408 11.050-11.056 18.25-25.293 20.656-40.624l0.749-6.627v-0.093c0.16-2.579 0.157-5.405 0.157-8.157zM233.769 129.51c7.903 15.805 27.131 22.211 42.938 14.31 15.807-7.904 22.216-27.13 14.313-42.938l-41.594-83.187c-7.904-15.808-27.13-22.214-42.938-14.31-15.804 7.904-22.215 27.13-14.312 42.938l41.594 83.187zM747.299 143.821c15.805 7.894 35.002 1.488 42.906-14.31l41.626-83.187c7.904-15.805 1.488-35.034-14.31-42.938-15.808-7.904-35.034-1.498-42.938 14.31l-41.594 83.187c-7.904 15.808-1.498 35.034 14.31 42.938zM928 479.99c17.674 0 32-14.326 32-32 0-17.67-14.326-32-32-32h-832c-17.673 0-32 14.33-32 32 0 17.674 14.327 32 32 32h832zM105.6 598.403v166.374c-0.008 30.504 10.609 60.072 30.031 83.594 19.422 23.519 46.453 39.518 76.406 45.281 29.953 5.761 60.988 0.917 87.75-13.719 26.343-14.41 46.919-37.419 58.343-65.156l16.624-36.875c7.274-16.107 0.109-35.041-16-42.312-16.099-7.267-35.034-0.127-42.311 15.969l-16.656 36.875-0.281 0.656-0.25 0.656c-5.794 14.509-16.481 26.534-30.188 34.031s-29.596 9.98-44.938 7.031c-15.344-2.952-29.207-11.139-39.156-23.188-9.949-12.050-15.38-27.217-15.375-42.844v-166.374c0-17.674-14.327-32-32-32s-32 14.326-32 32zM276.794 583.533l-29.037-11.44c1.532-3.888 3.829-7.427 6.754-10.41s6.42-5.347 10.277-6.954c3.856-1.606 7.996-2.422 12.174-2.397 4.178 0.022 8.308 0.886 12.146 2.538l-12.314 28.662zM524.73 690.277l12.355-28.621c7.437 3.207 13.334 9.18 16.448 16.655 3.11 7.476 3.197 15.869 0.234 23.405l-29.037-11.44zM305.789 595.014c-10.449 26.656-10.241 56.315 0.582 82.824l-57.824 23.504c-16.874-41.376-17.131-87.662-0.79-129.25l58.032 22.922zM512.416 718.981l-247.936-106.827 24.627-57.283 247.977 106.786-24.669 57.325zM440.531 736.37c25.875-11.024 45.136-32.032 55.203-57.491l58.032 22.838c-7.93 20.461-19.856 39.179-35.085 54.978-15.226 15.799-33.45 28.406-53.606 37.083l-24.544-57.408zM306.372 677.838c9.783 24.542 28.307 44.593 52 56.285l-27.29 56.16c-37.554-18.432-66.955-50.116-82.534-88.941l57.824-23.504zM358.371 734.123c12.72 6.289 26.65 9.747 40.835 10.135 14.182 0.388 28.282-2.303 41.325-7.888l24.544 57.408c-21.27 9.098-44.256 13.492-67.382 12.882s-45.85-6.169-66.611-16.376l27.29-56.16z" />
<glyph unicode="&#xe90d;" glyph-name="bascula" d="M896 94.317v707.367c0 17.363-14.326 31.439-32 31.439h-704c-17.673 0-32-14.076-32-31.439v-707.367c0-17.363 14.327-31.44 32-31.44h432c17.674 0 32-14.074 32-31.437s-14.326-31.44-32-31.44h-432c-53.019 0-96 42.227-96 94.317v707.367c0 52.089 42.981 94.316 96 94.316h704c53.021 0 96-42.227 96-94.316v-707.367c0-52.090-42.979-94.317-96-94.317h-144c-17.674 0-32 14.077-32 31.44s14.326 31.437 32 31.437h144c17.674 0 32 14.077 32 31.44zM504.218 785.965c90.426-0.001 163.674-37.284 217.658-82.373 53.658-44.818 89.837-98.571 107.187-135.672 6.797-14.528 1.427-31.76-12.499-40.035l-140.125-83.2c-8.634-5.126-19.213-5.965-28.563-2.243-9.35 3.725-16.374 11.568-18.938 21.155-19.584 73.277-90.131 93.056-124.72 93.056-33.181 0-60.72-14.643-82.685-35.091-22.272-20.736-36.938-45.827-43.219-61.494-3.565-8.893-11.053-15.728-20.346-18.544-9.29-2.816-19.398-1.322-27.437 4.051l-124.531 83.232c-11.594 7.75-16.695 22.010-12.594 35.184 55.754 178.829 231.496 221.974 310.811 221.974zM504.218 723.088c-62.47 0-191.034-32.975-241.78-155.936l74.251-49.613c10.32 16.4 23.882 33.917 40.813 49.677 23.946 22.288 55.677 42.086 94.717 49.338v43.657c0 17.363 14.33 31.439 32 31.439 17.674-0.002 32-14.076 32-31.439v-43.782c45.402-8.23 107.126-34.512 139.939-98.429l81.376 48.323c-16.614 27.245-42.566 60.477-77.126 89.343-45.648 38.127-104.717 67.42-176.189 67.421z" />
<glyph unicode="&#xe90e;" glyph-name="bebe" d="M569.386 296.202c10.445 14.259 30.461 17.35 44.72 6.909 14.253-10.445 17.347-30.464 6.906-44.72-24.608-33.597-64.144-55.747-108.998-55.75-44.864 0-84.422 22.15-109.034 55.75-10.438 14.253-7.341 34.275 6.909 44.72 14.256 10.442 34.275 7.35 44.717-6.909 13.328-18.192 34.214-29.562 57.408-29.562 23.184 0.003 44.048 11.373 57.373 29.562zM361.2 522.64c16.998 0 29.661-9.507 36.874-19.373 7.229-9.894 10.72-22.013 10.72-33.971-0.003-11.958-3.488-24.077-10.72-33.968-7.213-9.866-19.875-19.344-36.874-19.344-16.992 0.003-29.629 9.482-36.845 19.344-6.332 8.659-9.825 19.027-10.594 29.501l-0.156 4.467 0.156 4.502c0.77 10.464 4.265 20.81 10.594 29.469 7.213 9.862 19.846 19.373 36.845 19.373zM662.794 522.64c16.998 0 29.661-9.507 36.874-19.373 7.229-9.894 10.72-22.013 10.72-33.971-0.003-11.958-3.488-24.077-10.72-33.968-7.213-9.866-19.875-19.344-36.874-19.344-16.992 0-29.629 9.482-36.845 19.344-6.333 8.659-9.824 19.027-10.592 29.501l-0.157 4.467 0.157 4.502c0.768 10.467 4.262 20.81 10.592 29.469 7.216 9.866 19.846 19.373 36.845 19.373zM896 447.984c-0.003 10.477-2.979 20.672-8.467 29.344-5.488 8.662-13.229 15.405-22.189 19.498-9.312 4.259-16.032 12.714-18.064 22.752-16.083 79.44-58.326 150.623-119.437 201.624-61.091 50.984-137.328 78.719-215.843 78.719s-154.752-27.735-215.844-78.719c-61.109-51.001-103.354-122.184-119.437-201.624-2.032-10.038-8.751-18.493-18.062-22.752-8.96-4.093-16.701-10.835-22.188-19.498-5.489-8.672-8.466-18.867-8.469-29.344 0-10.483 2.977-20.701 8.469-29.376 4.799-7.578 11.32-13.664 18.875-17.814l3.313-1.654 3.344-1.811c7.559-4.608 12.94-12.182 14.719-20.97 16.083-79.437 58.333-150.595 119.437-201.594 61.095-50.989 137.325-78.752 215.844-78.752s154.749 27.763 215.843 78.752c14.058 11.731 27.123 24.528 39.094 38.25 11.619 13.309 31.84 14.678 45.155 3.062 13.312-11.619 14.682-31.843 3.062-45.155-14.166-16.24-29.645-31.405-46.31-45.315-72.47-60.477-163.171-93.594-256.845-93.594s-184.374 33.117-256.844 93.594c-68.644 57.29-116.892 135.811-137.875 223.408-13.986 9.078-25.902 21.152-34.906 35.376-12.021 18.992-18.375 41.088-18.375 63.594 0.003 22.496 6.357 44.573 18.375 63.562 9.007 14.227 20.915 26.326 34.906 35.405 20.987 87.587 69.238 166.093 137.875 223.376 72.469 60.48 163.17 93.594 256.844 93.594s184.374-33.114 256.845-93.594c68.634-57.282 116.854-135.792 137.843-223.376 14-9.078 25.926-21.171 34.938-35.405 12.016-18.989 18.371-41.066 18.374-63.562 0-22.506-6.352-44.602-18.374-63.594-8.995-14.208-20.912-26.24-34.877-35.315-6.128-25.6-14.538-50.445-25.155-74.186-7.216-16.128-26.15-23.341-42.282-16.125-16.131 7.213-23.37 26.147-16.157 42.282 10.704 23.93 18.835 49.174 24.125 75.312l0.97 3.686c2.774 8.41 8.938 15.366 17.094 19.094 8.96 4.093 16.701 10.806 22.189 19.469 5.491 8.675 8.467 18.893 8.467 29.376zM625.594 716.25c0 38.105-41.712 83.719-113.594 83.719-17.674 0-32 14.327-32 32s14.326 32 32 32c94.515 0 177.594-62.772 177.594-147.719 0-24.253-5.824-55.311-23.062-81.376-18.298-27.654-48.765-48.246-92.125-48.25-51.379 0-82.534 38.266-92.218 63.032-6.429 16.455 1.702 35.001 18.154 41.437 16.458 6.434 35.030-1.671 41.469-18.125 1.274-3.252 5.037-9.411 11.283-14.5 5.818-4.736 12.832-7.844 21.312-7.844 20.192 0.002 31.341 8.364 38.749 19.563 8.454 12.787 12.438 30.52 12.438 46.062z" />
<glyph unicode="&#xe90f;" glyph-name="bicicleta-estatica" d="M898.208 309.76c0 101.798-82.998 184.32-185.379 184.32-102.384 0-185.379-82.522-185.379-184.32s82.995-184.32 185.379-184.32c102.381 0 185.379 82.522 185.379 184.32zM960 309.76c0-135.728-110.662-245.76-247.171-245.76-136.512 0-247.174 110.032-247.174 245.76s110.662 245.76 247.174 245.76c136.509 0 247.171-110.032 247.171-245.76zM185.685 616.96c42.532 0 79.598-28.784 89.914-69.811l29.358-116.787 132.88-13.232c16.976-1.69 29.366-16.749 27.667-33.629s-16.845-29.2-33.824-27.51l-109.072 10.861 26.854-92.461 83.578 4.589c17.034 0.941 31.606-12.013 32.554-28.95s-12.080-31.424-29.114-32.368l-119.394-6.602-23.474-58.41c-14.076-34.989-48.181-57.93-86.082-57.93h-81.737c-17.064 0-30.896 13.754-30.896 30.72s13.833 30.72 30.896 30.72h81.737c12.634 0 24.002 7.658 28.694 19.322l12.793 31.827-90.608-5.008c-0.571-0.032-1.148-0.061-1.72-0.061-16.868 0-39.998 5.987-59.289 23.251-20.279 18.147-33.401 46.115-33.401 84.269 0 20.272 5.859 50 24.349 75.539 19.632 27.11 52.092 47.341 99.237 47.341 17.064 0 30.897-13.754 30.897-30.72s-13.833-30.72-30.897-30.72c-27.005 0-40.915-10.49-49.091-21.779-9.309-12.858-12.703-29.216-12.703-39.661 0-23.286 7.477-33.718 12.944-38.611 6.32-5.654 13.897-7.366 17.711-7.44l129.711 7.171-35.573 122.522c-0.103 0.352-0.182 0.72-0.272 1.078l-34.668 137.76c-3.438 13.677-15.784 23.28-29.961 23.28h-59.892c-17.064 0-30.896 13.754-30.896 30.72s13.833 30.72 30.896 30.72h59.892zM756.096 463.21c16.976 1.69 32.122-10.63 33.821-27.51l9.142-91.050c5.178-51.469-33.248-97.104-85.117-101.069l-137.766-10.531c-17.008-1.299-31.872 11.35-33.19 28.259-1.306 16.912 11.418 31.693 28.422 33.002l137.798 10.531c17.29 1.322 30.115 16.534 28.394 33.69l-9.174 91.050c-1.696 16.88 10.691 31.939 27.67 33.629zM631.965 832c43.702 0 81.478-30.353 90.64-72.84l35.875-166.469c3.571-16.586-7.040-32.918-23.718-36.48-16.678-3.555-33.107 6.998-36.688 23.578l-35.875 166.501c-3.056 14.159-15.667 24.27-30.234 24.27h-42.723c-17.062 0-30.896 13.754-30.896 30.72s13.834 30.72 30.896 30.72h42.723z" />
<glyph unicode="&#xe910;" glyph-name="bicicleta" d="M352 308.544c0 63.443-50.144 114.87-112 114.87s-112-51.427-112-114.87c0-63.443 50.144-114.87 112-114.87s112 51.427 112 114.87zM416 308.544c0-99.696-78.797-180.512-176-180.512s-176 80.816-176 180.512c0 99.696 78.798 180.512 176 180.512s176-80.816 176-180.512zM896 308.544c0 63.443-50.144 114.87-112 114.87s-112-51.427-112-114.87c0-63.443 50.144-114.87 112-114.87s112 51.427 112 114.87zM960 308.544c0-99.696-78.797-180.512-176-180.512s-176 80.816-176 180.512c0 99.696 78.797 180.512 176 180.512s176-80.816 176-180.512zM800 768.031c2.109 0 4.214-0.217 6.282-0.641 16.989-3.486 42.746-13.066 60.906-33.365 9.597-10.728 17.395-24.911 19.594-42.468 2.058-16.452-1.194-33.26-8.749-49.904-8.563-29.74-40.278-86.956-110.032-86.956-17.674 0-32 14.694-32 32.822 0 18.125 14.326 32.819 32 32.819 15.674 0 26.368 6.349 34.218 14.646 8.538 9.027 13.274 20.074 14.752 26.123l1.030 3.429c0.403 1.123 0.851 2.229 1.376 3.301 4.189 8.592 4.182 13.387 3.936 15.352-0.237 1.885-1.021 3.913-3.28 6.443-5.072 5.67-14.704 10.444-23.69 12.756h-57.53l-62.438-115.225 135.907-263.267c8.266-16.019 2.304-35.878-13.312-44.358-15.619-8.48-34.982-2.368-43.251 13.651l-114.032 220.931-100.717-219.552c-5.28-11.504-16.573-18.845-28.97-18.845h-32c-17.674 0-32 14.694-32 32.819s14.326 32.819 32 32.819h11.686l97.875 213.334h-201.248l-119.345-260.128c-7.524-16.4-26.604-23.45-42.594-15.738-15.989 7.718-22.864 27.286-15.344 43.686l127.999 278.973 2.282 4.106c1.638 2.544 3.571 4.838 5.782 6.794l-44.813 73.589h-78.281c-17.673 0-32 14.694-32 32.82s14.327 32.821 32 32.821h160c17.674 0 32-14.694 32-32.821s-14.326-32.82-32-32.82h-6.282l40-65.641h203.469l70.845 130.801 2.342 3.718c5.99 8.22 15.456 13.173 25.626 13.173h80z" />
<glyph unicode="&#xe911;" glyph-name="bombillo-inteligente" d="M438.877 110.035c2.493-6.506 5.814-13.027 10.16-18.973 10.842-14.826 29.19-28.186 63.462-28.186 9.68 0.003 27.552 3.654 43.885 15.718 9.242 6.829 18.544 16.784 25.651 31.44h-143.158zM514.742 587.571c28.019-0.224 52.784-11.046 78.173-26.25 15.059-9.021 19.846-28.365 10.691-43.2-9.158-14.832-28.794-19.546-43.856-10.528-21.811 13.062-34.65 17.011-45.539 17.101-11.069 0.083-25.27-3.779-49.744-17.533-15.312-8.602-34.81-3.35-43.542 11.728-8.72 15.075-3.389 34.256 11.904 42.861 28.026 15.75 54.077 26.042 81.914 25.821zM512.934 689.838c48.118 0.809 93.155-17.389 144.656-50.443 14.765-9.478 18.941-28.96 9.318-43.504-9.622-14.547-29.398-18.656-44.166-9.181-46.822 30.051-78.995 40.781-108.717 40.282-30.426-0.515-63.763-12.816-113.142-41.11-15.235-8.73-34.774-3.645-43.638 11.36-8.864 15.008-3.702 34.253 11.533 42.982 51.597 29.564 96.752 48.813 144.157 49.614zM384.829 172.912h255.338v63.062c-11.363 0.781-22.944 4.794-32.323 12.618-11.094 9.258-18.653 23.677-17.267 40.678l1.341 10.47c4.234 24.726 15.894 51.494 27.68 74.144 13.971 26.858 30.397 52.141 42.483 68.803l2.336 2.886c114.134 123.667 66.694 256.132 29.734 306.189-0.253 0.345-0.506 0.689-0.746 1.044-20.429 30.183-53.494 50.512-89.299 63.338-35.718 12.792-71.085 16.978-91.606 16.978-87.61 0-157.082-53.556-181.562-81.36-88.902-144.394-19.309-261.475 26.026-302.781 2.003-1.824 4.070-3.898 6.080-6.294 48.109-57.36 71.731-108.707 80.883-144.022h68.573c17.626 0 31.917-14.077 31.917-31.437 0-17.363-14.291-31.437-31.917-31.44h-127.67v-62.877zM704 172.912c0-31.354-23.322-57.235-53.795-61.987-10.787-37.923-31.414-64.81-55.514-82.618-28.346-20.941-59.955-28.307-82.192-28.307-55.088 0-92.592 23.322-115.264 54.342-13.418 18.355-21.155 38.621-25.059 56.95-29.194 5.786-51.181 31.162-51.181 61.619v62.877c0 32.234 24.624 58.768 56.355 62.416-8.848 24.534-27.213 61.155-63.524 104.448 0.067-0.080 0.018-0.029-0.218 0.186-60.59 55.213-146.422 204.442-37.060 381.776l2.587 3.899c0.953 1.308 2.005 2.621 3.148 3.93l6.577 7.123c35.902 37.212 117.959 96.434 223.639 96.434 27.347-0.001 70.16-5.26 113.424-20.754 42.848-15.348 89.197-41.888 119.843-86.518l4.554-6.386c46.915-68.97 97.677-229.529-37.091-377.264-10.496-14.582-24.771-36.726-36.813-59.869-9.382-18.038-16.269-34.614-19.76-47.834 27.040-5.622 47.344-29.254 47.344-57.565v-66.899zM480.576 487.299h63.834v-62.877h-63.834v62.877z" />
<glyph unicode="&#xe912;" glyph-name="bose" d="M896 704v64c0 35.346-28.653 64-64 64h-640c-35.346 0-64-28.654-64-64v-640c0-35.347 28.654-64 64-64h640c35.347 0 64 28.653 64 64v288c0 17.674 14.326 32 32 32s32-14.326 32-32v-288c0-70.691-57.309-128-128-128h-640c-70.692 0-128 57.309-128 128v640c0 70.692 57.308 128 128 128h640c70.691 0 128-57.308 128-128v-64c0-17.673-14.326-32-32-32s-32 14.327-32 32zM608 480v240c0 17.673 14.326 32 32 32s32-14.327 32-32v-240c0-17.674-14.326-32-32-32s-32 14.326-32 32zM512 640h256c17.674 0 32-14.326 32-32s-14.326-32-32-32h-256c-17.674 0-32 14.326-32 32s14.326 32 32 32z" />
<glyph unicode="&#xe913;" glyph-name="cable" d="M332.8 685.714v29.714h-209.066v-148.571h209.066v14.858c0 16.41 13.373 29.712 29.869 29.712 16.493 0 29.866-13.302 29.866-29.712v-44.573c0-16.41-13.373-29.715-29.866-29.715h-119.468v-297.142c0-46.896 22.303-72.106 51.042-86.88 30.874-15.869 69.617-19.408 95.812-17.235l2.48 0.115c29.168 0 49.494 14.858 64.429 36.998 15.152 22.464 22.88 50.282 25.171 69.062v517.94c0 2.427 0.314 4.842 0.906 7.196 8.861 35.271 38.422 60.435 64.134 76.607 26.87 16.898 56.496 28.35 76.096 33.922l2.598 0.609c0.867 0.165 1.744 0.29 2.624 0.377 65.792 6.546 113.584-8.219 146.211-33.080 31.99-24.375 47.059-56.74 50.605-81.424 0.202-1.392 0.291-2.802 0.291-4.208v-341.713h104.534c16.496 0 29.866-13.306 29.866-29.715v-208c0-16.41-13.37-29.715-29.866-29.715h-14.934v-59.427c0-16.413-13.37-29.715-29.866-29.715h-29.866c-16.496 0-29.869 13.302-29.869 29.715v59.427h-59.731v-59.427c0-16.413-13.373-29.715-29.869-29.715h-29.866c-16.496 0-29.866 13.302-29.866 29.715v59.427h-14.934c-16.496 0-29.866 13.306-29.866 29.715v208c0 16.41 13.37 29.715 29.866 29.715h104.534v338.985c-1.914 10.223-9.382 27.369-27.504 41.176-18.064 13.758-49.114 26.002-101.034 21.386-15.299-4.591-38.112-13.619-58.218-26.261-20.733-13.038-33.107-26.485-37.245-38.159v-515.416c0-1.094-0.054-2.189-0.176-3.277-2.88-25.789-13.053-64.109-35.146-96.864-22.518-33.373-59.139-62.893-113.078-63.229-33.539-2.534-83.516 1.51-126.643 23.68-45.926 23.606-83.358 67.734-83.358 139.69v297.142h-89.6c-16.495 0-29.867 13.306-29.867 29.715v208c0 16.411 13.372 29.715 29.867 29.715h14.933v59.428c0 16.411 13.372 29.714 29.867 29.714h29.867c16.495 0 29.867-13.304 29.867-29.714v-59.428h59.733v59.428c0 16.411 13.372 29.714 29.867 29.714h29.867c16.494 0 29.867-13.304 29.867-29.714v-59.428h14.934c16.493 0 29.866-13.304 29.866-29.715v-59.428c0-16.411-13.373-29.714-29.866-29.714-16.496 0-29.869 13.304-29.869 29.714zM691.2 180.573h209.069v148.57h-209.069v-148.57z" />
<glyph unicode="&#xe914;" glyph-name="calendario" d="M119.984 832v-176h784v176h-784zM967.984 656c0-35.347-28.653-64-64-64h-784v-528h784v448c0 17.674 14.326 32 32 32s32-14.326 32-32v-448c0-35.347-28.653-64-64-64h-784c-35.346 0-64 28.653-64 64v768c0 35.346 28.654 64 64 64h784c35.347 0 64-28.654 64-64v-176zM327.984 736c0-35.346-28.653-64-64-64s-64 28.654-64 64c0 35.346 28.654 64 64 64s64-28.654 64-64zM839.984 736c0-35.346-28.653-64-64-64s-64 28.654-64 64c0 35.346 28.653 64 64 64s64-28.654 64-64zM359.984 544h128v-128h-128v128zM359.984 384h128v-128h-128v128zM167.984 384h128v-128h-128v128zM359.984 224h128v-128h-128v128zM167.984 224h128v-128h-128v128zM551.984 544h128v-128h-128v128zM551.984 384h128v-128h-128v128zM551.984 224h128v-128h-128v128zM743.984 544h128v-128h-128v128zM743.984 384h128v-128h-128v128zM743.984 224h128v-128h-128v128z" />
<glyph unicode="&#xe915;" glyph-name="calentador" horiz-adv-x="1035" d="M300.812 896c17.668-0.007 32-14.331 32-32s-14.333-31.993-32-32h-108.812v-32h640v32h-390.406c-17.67 0.004-32 14.329-32 32s14.33 31.996 32 32h422.406c17.674 0 32-14.327 32-32v-768c0-17.674-14.326-32-32-32h-108.813v-32c0-17.674-14.326-32-32-32h-398.906c-17.674 0-32 14.326-32 32v32h-132.281c-17.673 0-32 14.326-32 32v768c0 17.673 14.327 32 32 32h140.812zM356.282 64h334.906v64h-334.906v-64zM192 128h100.281v32c0 17.674 14.327 32 32 32h398.906c17.674 0 32-14.326 32-32v-32h76.813v608h-640v-608zM736 288v192c0 17.674 14.326 32 32 32s32-14.326 32-32v-192c0-17.674-14.326-32-32-32s-32 14.326-32 32zM544 592c0 26.509-21.491 48-48 48s-48-21.491-48-48c0-26.509 21.491-48 48-48v-64c-61.856 0-112 50.144-112 112s50.144 112 112 112c61.856 0 112-50.144 112-112s-50.144-112-112-112v64c26.509 0 48 21.491 48 48z" />
<glyph unicode="&#xe916;" glyph-name="camara-seguridad" d="M384.342 793.147c12 9.711 29.677 9.15 41.034-1.764l525.248-505.044c8.365-8.042 11.44-20.064 7.965-31.085-3.472-11.024-12.912-19.174-24.41-21.075l-175.606-28.992-101.139-100.198c-11.914-11.802-31.171-11.974-43.296-0.387l-224.547 214.8-71.237-75.894c-5.845-6.224-14.050-9.744-22.63-9.744h-46.345c-17.064 0-30.897 13.702-30.897 30.608 0 16.902 13.833 30.608 30.897 30.608h32.858l62.881 66.957-178.986 171.187c-5.963 5.702-9.372 13.549-9.444 21.76s3.191 16.106 9.052 21.91l218.604 216.353zM63.996 157.242v214.259c0 16.906 13.833 30.608 30.897 30.608s30.897-13.702 30.897-30.608v-76.522h14.345c17.064 0 30.897-13.706 30.897-30.608 0-16.906-13.833-30.608-30.897-30.608h-14.345v-76.522c0-16.906-13.833-30.611-30.897-30.611s-30.897 13.706-30.897 30.611zM231.636 555.542l403.561-385.987 64.451 63.846-403.563 385.987-64.449-63.846zM339.776 662.671l414.211-396.178 109.709 18.115-459.533 441.851-64.387-63.788z" />
<glyph unicode="&#xe917;" glyph-name="camara" d="M896 640v32h-768v-576h768v384c0 17.674 14.326 32 32 32s32-14.326 32-32v-416c0-17.674-14.326-32-32-32h-832c-17.673 0-32 14.326-32 32v640c0 17.673 14.327 32 32 32h156.219l55.156 110.313 2.281 3.875c5.918 8.575 15.736 13.812 26.344 13.812h352c12.122 0 23.203-6.846 28.624-17.687l55.158-110.313h156.218c17.674 0 32-14.327 32-32v-64c0-17.674-14.326-32-32-32s-32 14.326-32 32zM323.782 736h376.435l-32 64h-312.435l-32-64zM672 384c0 88.365-71.635 160-160 160s-160-71.635-160-160c0-88.365 71.635-160 160-160s160 71.635 160 160zM736 384c0-123.712-100.288-224-224-224s-224 100.288-224 224c0 123.712 100.288 224 224 224s224-100.288 224-224z" />
<glyph unicode="&#xe918;" glyph-name="casa-inteligente" d="M195.039 254.074v189.901c-23.457-7.235-49.82 0.278-66.017 21.091l-23.595 30.301c-21.246 27.299-17.040 67.133 9.414 89.104l358.238 297.432c22.73 18.87 55.226 18.785 77.875-0.186l371.149-310.859c28.378-23.773 30.531-67.555 4.646-94.163l-18.765-19.322c-15.098-15.514-36.32-21.44-56.122-17.274v-376.582h77.242c17.062 0 30.896-14.218 30.896-31.757 0-17.542-13.834-31.76-30.896-31.76h-834.207c-17.064 0-30.897 14.218-30.897 31.76 0 17.539 13.833 31.757 30.897 31.757h100.142v92.458c0.006 17.533 13.837 31.757 30.897 31.757 17.056-0.003 30.89-14.227 30.897-31.757v-92.458h533.238v416.189l-277.648 210.96-255.59-203.021v-233.571c0-17.539-13.836-31.757-30.897-31.76-17.064 0-30.897 14.218-30.897 31.76zM153.672 535.066l23.625-30.333 297.32 236.177c21.866 17.368 52.304 17.69 74.525 0.806l315.12-239.402 18.797 19.293-371.149 310.859-358.238-297.399zM514.234 341.27c27.581-0.538 51.85-12.755 76.154-28.656 14.387-9.421 18.627-29.030 9.475-43.824-9.162-14.797-28.269-19.158-42.666-9.741-21.738 14.224-34.054 18.538-44.141 18.733-9.853 0.192-22.986-3.498-46.224-18.733-14.387-9.43-33.488-5.078-42.662 9.709s-4.97 34.422 9.411 43.856c27.197 17.827 52.838 29.2 80.653 28.656zM514.173 446.131c44.013 0.099 85.645-12.883 134.419-36.131 15.475-7.382 22.202-26.272 15.024-42.179-7.181-15.907-25.558-22.826-41.034-15.446-44.752 21.331-76.973 30.31-108.288 30.24-31.565-0.074-65.475-9.341-113.69-30.611-15.68-6.918-33.85 0.541-40.582 16.653-6.73 16.118 0.525 34.797 16.202 41.715 51.261 22.618 94.179 35.661 137.949 35.76zM542.896 222.314c0-17.539-13.834-31.757-30.896-31.757s-30.896 14.218-30.896 31.757c0 17.542 13.834 31.76 30.896 31.76s30.896-14.218 30.896-31.76z" />
<glyph unicode="&#xe919;" glyph-name="casco-moto" d="M900.173 226.669v210.88c1.174 57.376-10.234 114.32-33.398 166.752-23.162 52.425-57.507 99.072-100.595 136.619-43.091 37.549-93.878 65.071-148.72 80.648-54.838 15.574-112.422 18.835-168.643 9.508-56.214-9.327-109.709-30.999-156.682-63.468-46.98-32.477-86.291-74.987-115.121-124.487-28.83-49.502-46.488-104.788-51.684-161.937-5.172-56.909 2.159-114.253 21.408-168.003 2.275-5.562 7.733-13.728 15.779-21.818 8.111-8.157 16.255-13.664 21.729-15.898l133.35-50.022c15.44-5.795 23.261-22.998 17.472-38.442-5.795-15.443-23-23.261-38.443-17.472l-133.904 50.198c-0.216 0.080-0.427 0.176-0.642 0.262-15.427 6.205-30.224 17.501-41.913 29.254-11.695 11.763-22.899 26.627-29.050 42.090-0.121 0.301-0.239 0.624-0.35 0.931-22.386 62.157-30.892 128.515-24.908 194.342 5.986 65.827 26.301 129.533 59.529 186.585 33.23 57.054 78.56 106.059 132.767 143.533s115.967 62.497 180.892 73.268c64.928 10.771 131.424 7.019 194.746-10.967 63.318-17.985 121.91-49.761 171.616-93.073 49.709-43.316 89.331-97.111 116.026-157.535 26.691-60.416 39.824-126.010 38.47-192.096v-209.654c0-15.498-4.378-33.037-10.47-48.358-6.099-15.334-15.286-31.933-27.475-44.189l-108.733-109.322c-0.995-1.002-2.051-1.949-3.178-2.8-12.096-9.123-27.642-16.045-43.488-19.514-15.568-3.402-34.518-4.086-52.237 2.947l-0.323 0.086-224.902 87.386c-15.373 5.978-22.979 23.302-17.005 38.678 5.978 15.363 23.277 22.976 38.646 17.005l225.574-87.648c3.101-1.248 9.088-1.949 17.472-0.118 7.52 1.645 14.384 4.874 19.043 8.080l106.752 107.334c4.534 4.563 9.997 13.206 14.349 24.154 4.355 10.95 6.24 20.749 6.243 26.278zM896.573 559.334c16.493 0 29.862-13.376 29.866-29.866 0-16.496-13.37-29.869-29.866-29.869h-410.202c-12.426 0.179-24.653-4.221-34.502-12.627-9.882-8.435-16.758-20.41-19.104-33.894-2.346-13.491 0.038-27.363 6.592-39.085 5.718-10.23 14.227-18.15 24.179-22.896l4.374-1.837 0.32-0.118 439.046-168.208c15.402-5.901 23.107-23.184 17.21-38.589-5.904-15.402-23.187-23.11-38.589-17.206l-439.046 168.208c-25.338 9.459-46.397 27.808-59.645 51.51-13.296 23.786-17.949 51.571-13.27 78.458 4.678 26.902 18.451 51.437 39.139 69.098 20.605 17.59 46.714 27.178 73.734 26.893l409.763 0.029z" />
<glyph unicode="&#xe91a;" glyph-name="cerraduras" d="M476.522 325.779c-23.603 0-42.499 15.075-50.326 20.842-4.259 3.13-11.43 6.205-20.848 8.464-8.781 2.102-17.597 3.014-24.032 3.213-26.778-5.35-42.314-19.667-51.763-35.222-10.151-16.71-13.47-35.363-13.47-46.17 0-19.546 8.635-33.565 21.886-44.512 13.722-11.334 31.12-18 43.408-20.586 26.099 0.461 37.008 7.738 40.931 11.549 5.203 5.059 14.15 14.32 23.693 21.478 9.766 7.322 24.307 15.779 42.49 15.779h344.816v65.165h-356.784zM598.205 504.979v325.818h-407.511v-599.773c10.185-57.008 63.782-165.901 203.754-165.901 13.181 0 36.33 2.134 60.154 8.688 24.326 6.691 45.594 16.97 58.746 30.64 12.24 12.723 32.083 12.723 44.326 0s12.243-33.347 0-46.074c-24.464-25.424-58.067-39.597-87.030-47.568-29.459-8.102-58.032-10.848-76.195-10.848-181.501 0-252.251 144.573-265.499 219.578-0.708 4.006-0.949 7.766-0.949 11.2v600.058c0 35.989 28.069 65.164 62.694 65.164h407.511c34.624 0 62.694-29.175 62.694-65.164v-325.818c0-17.994-14.035-32.582-31.347-32.582s-31.347 14.589-31.347 32.582zM457.142 781.924c17.312 0 31.347-14.587 31.347-32.582s-14.035-32.582-31.347-32.582h-125.389c-17.311 0-31.345 14.587-31.345 32.582s14.034 32.582 31.345 32.582h125.389zM896 260.614c0-35.987-28.070-65.162-62.694-65.162h-344.816c0.87 0-0.662 0.371-5.786-3.469-5.35-4.013-10.138-9.005-17.571-16.227-18.336-17.818-45.978-28.592-83.296-29.146-3.638-0.054-7.526 0.221-11.51 1.018-19.738 3.949-47.638 14.166-71.357 33.76-24.479 20.221-45.581 51.616-45.581 95.517 0 21.398 5.867 52.458 23.173 80.947 17.934 29.52 47.967 55.77 93.887 64.653 3.725 0.72 7.651 1.082 11.635 0.986l8.202-0.413c8.72-0.64 18.861-2.013 29.174-4.486 13.418-3.216 29.395-8.803 42.979-18.803 5.085-3.744 8.362-6.045 11.328-7.606 1.939-1.021 2.835-1.216 2.97-1.238h356.57c34.624 0 62.694-29.174 62.694-65.165v-65.165zM363.101 586.435c0-17.997-14.032-32.582-31.347-32.582-17.311 0-31.345 14.586-31.345 32.582 0 17.994 14.034 32.579 31.345 32.579 17.315 0 31.347-14.586 31.347-32.579zM488.49 586.435c0-17.997-14.035-32.582-31.347-32.582s-31.347 14.586-31.347 32.582c0 17.994 14.035 32.579 31.347 32.579s31.347-14.586 31.347-32.579z" />
<glyph unicode="&#xe91b;" glyph-name="check" d="M268.133 823.823c89.841 58.301 197.611 82.468 303.751 68.156 106.141-14.315 203.651-66.169 274.842-146.188 11.744-13.204 10.547-33.442-2.656-45.188-13.203-11.738-33.411-10.544-45.155 2.656-61.021 68.59-144.611 113.044-235.594 125.312-90.976 12.267-183.338-8.467-260.344-58.437-77.010-49.977-133.586-125.909-159.437-214.001-25.849-88.086-19.286-182.522 18.5-266.186 37.789-83.667 104.317-151.034 187.5-189.875 83.181-38.842 177.53-46.611 265.939-21.875s165.021 80.346 215.968 156.717c50.944 76.371 72.867 168.467 61.75 259.597-2.141 17.542 10.33 33.514 27.875 35.654 17.542 2.141 33.485-10.365 35.626-27.907 12.97-106.317-12.563-213.773-72-302.874-59.437-89.094-148.832-153.952-251.971-182.813-103.146-28.858-213.232-19.818-310.282 25.501-97.044 45.318-174.63 123.92-218.717 221.53-44.088 97.613-51.754 207.792-21.594 310.563s96.156 191.35 186 249.657zM712.221 628.995c11.824 13.649 32.051 14.753 45.187 2.467s14.198-33.309 2.378-46.957l-265.443-306.496c-24.528-28.317-66.886-29.469-92.813-2.534l-136.157 141.491c-12.497 12.989-12.497 34.038 0 47.024s32.754 12.986 45.25 0l136.158-141.491 265.44 306.496z" />
<glyph unicode="&#xe91c;" glyph-name="climatizacion" d="M296.265 832c18.328 0 33.185-15.108 33.185-33.743s-14.857-33.743-33.185-33.743h-165.926v-337.435h763.258v337.435h-481.184c-18.326 0-33.184 15.107-33.184 33.743s14.858 33.743 33.184 33.743h514.371c18.326 0 33.184-15.108 33.184-33.743v-404.922c0-18.634-14.858-33.741-33.184-33.741h-829.63c-18.328 0-33.185 15.107-33.185 33.741v404.922c0 18.636 14.858 33.743 33.185 33.743h199.111zM777.45 545.181c18.33 0 33.187-15.107 33.187-33.744 0-18.634-14.858-33.744-33.187-33.744h-530.962c-18.328 0-33.185 15.11-33.185 33.744 0 18.637 14.858 33.744 33.185 33.744h530.962zM345.994 122.986c0.803 16.384-8.419 31.437-24.070 47.002l-7.096 6.704-0.357 0.326c-8.71 7.53-11.404 12.074-11.636 17.824-0.284 7.088 3.162 18.038 15.377 38.16 5.757 9.494-1.288 20.253-15.735 24.042-14.448 3.782-30.823-0.848-36.587-10.339-12.737-20.982-19.974-37.824-19.366-52.858 0.657-16.211 10.262-28.061 22.75-38.918 16.978-15.357 20.735-24.118 20.412-30.749-0.353-7.181-5.593-15.955-21.154-31.472-8.56-8.531-4.977-20.022 8.005-25.648 12.987-5.626 30.471-3.27 39.035 5.258 16.338 16.288 29.531 32.496 30.424 50.669zM478.736 122.986c0.803 16.384-8.419 31.437-24.070 47.002l-7.098 6.704-0.358 0.326c-8.71 7.53-11.402 12.074-11.635 17.824-0.285 7.088 3.162 18.038 15.376 38.16 5.76 9.494-1.286 20.253-15.734 24.042-14.448 3.782-30.822-0.848-36.586-10.339-12.739-20.982-19.974-37.824-19.366-52.858 0.656-16.211 10.262-28.061 22.749-38.918 16.979-15.357 20.736-24.118 20.413-30.749-0.355-7.181-5.594-15.955-21.155-31.472-8.56-8.531-4.976-20.022 8.006-25.648 12.986-5.626 30.47-3.27 39.034 5.258 16.336 16.288 29.533 32.496 30.426 50.669zM644.662 122.986c0.8 16.384-8.419 31.437-24.070 47.002l-7.098 6.704-0.358 0.326c-8.71 7.53-11.405 12.074-11.635 17.824-0.285 7.088 3.162 18.038 15.376 38.16 5.76 9.494-1.286 20.253-15.734 24.042-14.448 3.782-30.822-0.848-36.586-10.339-12.739-20.982-19.974-37.824-19.366-52.858 0.656-16.211 10.262-28.061 22.749-38.918 16.979-15.357 20.736-24.118 20.413-30.749-0.355-7.181-5.594-15.955-21.155-31.472-8.56-8.531-4.976-20.022 8.003-25.648 12.989-5.626 30.474-3.27 39.037 5.258 16.336 16.288 29.53 32.496 30.426 50.669zM777.402 122.986c0.803 16.384-8.419 31.437-24.070 47.002l-7.098 6.704-0.358 0.326c-8.707 7.53-11.402 12.074-11.635 17.824-0.285 7.088 3.162 18.038 15.379 38.16 5.757 9.494-1.29 20.253-15.738 24.042-14.445 3.782-30.822-0.848-36.586-10.339-12.736-20.982-19.974-37.824-19.366-52.858 0.659-16.211 10.262-28.061 22.749-38.918 16.979-15.357 20.736-24.118 20.413-30.749-0.352-7.181-5.594-15.955-21.155-31.472-8.56-8.531-4.976-20.022 8.006-25.648 12.986-5.626 30.47-3.27 39.034 5.258 16.339 16.288 29.533 32.496 30.426 50.669z" />
<glyph unicode="&#xe91d;" glyph-name="cocina" d="M900.266 387.011c-6.624-2.4-14.17-4.957-22.634-7.466-25.808-7.648-60.051-15.059-102.227-18.723-1.062-0.163-2.141-0.246-3.238-0.294-15.933-1.296-32.97-2.128-51.101-2.128-67.808 0-120.438 10.442-156.566 21.146-8.461 2.509-16.006 5.066-22.634 7.466v-327.277h358.4v327.277zM64 364.378v480.406l17.004 8.487c0.247 0.121 0.589 0.276 0.992 0.467 0.804 0.381 1.911 0.912 3.325 1.546 2.833 1.269 6.883 3.003 12.075 5.046 10.382 4.085 25.393 9.39 44.538 14.671 38.28 10.56 93.226 21 161 21s122.721-10.44 160.999-21c19.146-5.281 34.157-10.586 44.538-14.671 5.194-2.043 9.242-3.777 12.077-5.046 1.411-0.633 2.518-1.164 3.325-1.546 0.4-0.191 0.742-0.346 0.992-0.467l17.002-8.487v-393.225c1.386-0.653 3.027-1.462 4.96-2.304 7.501-3.274 19.107-7.85 34.65-12.454 31.072-9.206 77.99-18.666 139.59-18.666 6.822 0 13.462 0.189 19.923 0.406v119.059c0 5.28-2.099 10.352-5.834 14.086s-8.806 5.834-14.090 5.834c-5.28 0-10.352-2.099-14.086-5.834s-5.834-8.806-5.834-14.086v-9.946c0-16.496-13.373-29.866-29.866-29.866-16.493 0.003-29.869 13.373-29.869 29.866v9.946c0 21.123 8.397 41.386 23.334 56.32 14.938 14.938 35.197 23.334 56.32 23.334s41.386-8.397 56.323-23.334c14.934-14.934 23.331-35.197 23.331-56.32v-113.779c24.016 3.542 44.051 8.272 59.939 12.979 15.542 4.605 27.146 9.181 34.65 12.454 3.75 1.635 6.486 2.944 8.166 3.792 0.838 0.422 1.437 0.733 1.75 0.902 0.077 0.045 0.131 0.093 0.176 0.118l-0.032-0.029 6.883 3.907h47.747v-457.946h-896v185.178c0.003 16.493 13.374 29.869 29.867 29.869s29.864-13.376 29.867-29.869v-125.443h358.401v467.891c-8.397 3.152-19.824 7.123-34.067 11.053-33.898 9.35-83.488 18.842-145.134 18.842s-111.236-9.491-145.133-18.842c-14.243-3.93-25.672-7.901-34.067-11.053v-163.248c0-16.493-13.372-29.866-29.867-29.866s-29.867 13.373-29.867 29.866zM163.546 408.189v79.622c0 16.493 13.376 29.862 29.867 29.869 16.495 0 29.867-13.373 29.867-29.869v-79.622c0-16.496-13.372-29.869-29.867-29.869-16.491 0.006-29.867 13.376-29.867 29.869zM302.933 836.267c-61.646 0-111.236-9.491-145.133-18.842-14.243-3.93-25.672-7.902-34.067-11.054v-215.513c5.566 1.766 11.643 3.587 18.2 5.395 38.28 10.56 93.228 21.002 161 21.002 67.771 0 122.721-10.442 160.999-21.002 6.557-1.808 12.634-3.629 18.202-5.395v215.513c-8.397 3.152-19.824 7.124-34.067 11.054-33.898 9.351-83.488 18.842-145.134 18.842zM163.546 667.012v79.654c0 16.492 13.376 29.861 29.867 29.867 16.495 0 29.867-13.372 29.867-29.867v-79.654c-0.005-16.491-13.375-29.867-29.867-29.867-16.487 0.006-29.861 13.38-29.867 29.867z" />
<glyph unicode="&#xe91e;" glyph-name="codigos-digitales" d="M900.266 539.827v117.083c-0.003 44.492-36.323 81.872-82.717 81.872h-611.099c-46.393 0-82.713-37.381-82.716-81.872v-417.819c0.003-44.493 36.323-81.875 82.716-81.875h611.099c46.394 0 82.714 37.382 82.717 81.875v86.474c0 16.906 13.373 30.608 29.869 30.608 16.493 0 29.866-13.702 29.866-30.608v-86.474c-0.003-79.754-64.502-143.091-142.451-143.091h-611.099c-77.949 0-142.447 63.338-142.45 143.091v417.819c0.003 79.753 64.501 143.090 142.45 143.090h611.099c77.949 0 142.448-63.337 142.451-143.090v-117.083c0-16.906-13.373-30.611-29.866-30.611-16.496 0-29.869 13.706-29.869 30.611zM768 580.637c0 12.211-9.552 22.106-21.334 22.106h-469.332c-11.782 0-21.333-9.894-21.333-22.106v-265.274c0-12.211 9.551-22.106 21.333-22.106h469.332c11.782 0 21.334 9.894 21.334 22.106v265.274zM810.666 315.363c0-36.627-28.653-66.32-64-66.32h-469.332c-35.346 0-64 29.693-64 66.32v265.274c0 36.627 28.654 66.32 64 66.32h469.332c35.347 0 64-29.692 64-66.32v-265.274zM405.334 536.426h-42.669v-66.32h-63.999v-53.053h63.999v-79.584h42.669v79.584h64v53.053h-64v66.32zM405.334 558.531c11.782 0 21.331-9.898 21.331-22.106v-44.214h42.669c11.782 0 21.331-9.894 21.331-22.106v-53.062c-0.003-12.205-9.552-22.106-21.331-22.106h-42.669v-57.469c0-12.208-9.549-22.106-21.331-22.106h-42.669c-11.782 0-21.331 9.898-21.331 22.106v57.469h-42.668c-11.779 0-21.329 9.901-21.333 22.106v53.062c0 12.211 9.551 22.106 21.333 22.106h42.668v44.214c0 12.208 9.549 22.106 21.331 22.106h42.669zM384 470.106c0-12.208-9.552-22.106-21.334-22.106h-42.666v-8.851h42.666c11.782 0 21.334-9.898 21.334-22.106 0 12.208 9.552 22.106 21.334 22.106h42.666v8.851h-42.666c-11.782 0-21.334 9.898-21.334 22.106zM640 392.733c0-30.522-23.878-55.264-53.334-55.264-29.453 0-53.331 24.742-53.331 55.264 0 30.525 23.878 55.267 53.331 55.267 29.456 0 53.334-24.742 53.334-55.267zM725.334 503.267c0-30.525-23.878-55.267-53.334-55.267s-53.334 24.742-53.334 55.267c0 30.522 23.878 55.264 53.334 55.264s53.334-24.742 53.334-55.264z" />
<glyph unicode="&#xe91f;" glyph-name="colchon" d="M192 832v-675.562h356.342c17.674 0 32-14.326 32-32-0.003-17.67-14.326-32-32-32h-312.342v-28.438h574v28.438h-139.219c-17.67 0-31.997 14.33-32 32 0 17.67 14.326 31.997 32 32h161.219v675.562h-640zM896 146.438c-0.003-17.824-8.682-33.574-22-43.408v-39.030c0-35.347-28.653-64-64-64h-574c-35.346 0-64 28.653-64 64v31.686c-25.541 8.403-43.997 32.4-44 60.752v675.562c0 35.346 28.654 64 64 64h640c35.347 0 64-28.654 64-64v-685.562zM448 507.085c7.542 6.774 19.133 6.554 26.384-0.701 7.254-7.251 7.475-18.842 0.701-26.384 6.774-7.542 6.554-19.133-0.701-26.384-7.251-7.254-18.842-7.475-26.384-0.701-7.542-6.774-19.133-6.554-26.384 0.701-7.254 7.251-7.475 18.842-0.701 26.384-6.774 7.542-6.554 19.133 0.701 26.384 7.251 7.254 18.842 7.475 26.384 0.701zM320 507.085c7.542 6.774 19.133 6.554 26.384-0.701 7.254-7.251 7.475-18.842 0.701-26.384 6.774-7.542 6.554-19.133-0.701-26.384-7.251-7.254-18.842-7.475-26.384-0.701-7.541-6.774-19.132-6.554-26.384 0.701-7.253 7.251-7.474 18.842-0.7 26.384-6.773 7.542-6.553 19.133 0.7 26.384 7.253 7.254 18.844 7.475 26.384 0.701zM512 379.085c7.542 6.774 19.133 6.554 26.384-0.701 7.254-7.251 7.475-18.842 0.701-26.384 6.774-7.542 6.554-19.133-0.701-26.384-7.251-7.254-18.842-7.475-26.384-0.701-7.542-6.774-19.133-6.554-26.384 0.701-7.254 7.251-7.475 18.842-0.701 26.384-6.774 7.542-6.554 19.133 0.701 26.384 7.251 7.254 18.842 7.475 26.384 0.701zM384 379.085c7.542 6.774 19.133 6.554 26.384-0.701 7.254-7.251 7.475-18.842 0.701-26.384 6.774-7.542 6.554-19.133-0.701-26.384-7.251-7.254-18.842-7.475-26.384-0.701-7.542-6.774-19.133-6.554-26.384 0.701-7.254 7.251-7.475 18.842-0.701 26.384-6.774 7.542-6.554 19.133 0.701 26.384 7.251 7.254 18.842 7.475 26.384 0.701zM448 251.085c7.542 6.774 19.133 6.554 26.384-0.701 7.254-7.251 7.475-18.842 0.701-26.384 6.774-7.542 6.554-19.133-0.701-26.384-7.251-7.254-18.842-7.475-26.384-0.701-7.542-6.774-19.133-6.554-26.384 0.701-7.254 7.251-7.475 18.842-0.701 26.384-6.774 7.542-6.554 19.133 0.701 26.384 7.251 7.254 18.842 7.475 26.384 0.701zM320 251.085c7.542 6.774 19.133 6.554 26.384-0.701 7.254-7.251 7.475-18.842 0.701-26.384 6.774-7.542 6.554-19.133-0.701-26.384-7.251-7.254-18.842-7.475-26.384-0.701-7.541-6.774-19.132-6.554-26.384 0.701-7.253 7.251-7.474 18.842-0.7 26.384-6.773 7.542-6.553 19.133 0.7 26.384 7.253 7.254 18.844 7.475 26.384 0.701zM704 507.085c7.542 6.774 19.133 6.554 26.384-0.701 7.254-7.251 7.475-18.842 0.701-26.384 6.774-7.542 6.554-19.133-0.701-26.384-7.251-7.254-18.842-7.475-26.384-0.701-7.542-6.774-19.133-6.554-26.384 0.701-7.254 7.251-7.475 18.842-0.701 26.384-6.774 7.542-6.554 19.133 0.701 26.384 7.251 7.254 18.842 7.475 26.384 0.701zM640 379.085c7.542 6.774 19.133 6.554 26.384-0.701 7.254-7.251 7.475-18.842 0.701-26.384 6.774-7.542 6.554-19.133-0.701-26.384-7.251-7.254-18.842-7.475-26.384-0.701-7.542-6.774-19.133-6.554-26.384 0.701-7.254 7.251-7.475 18.842-0.701 26.384-6.774 7.542-6.554 19.133 0.701 26.384 7.251 7.254 18.842 7.475 26.384 0.701zM704 251.085c7.542 6.774 19.133 6.554 26.384-0.701 7.254-7.251 7.475-18.842 0.701-26.384 6.774-7.542 6.554-19.133-0.701-26.384-7.251-7.254-18.842-7.475-26.384-0.701-7.542-6.774-19.133-6.554-26.384 0.701-7.254 7.251-7.475 18.842-0.701 26.384-6.774 7.542-6.554 19.133 0.701 26.384 7.251 7.254 18.842 7.475 26.384 0.701zM576 507.085c7.542 6.774 19.133 6.554 26.384-0.701 7.254-7.251 7.475-18.842 0.701-26.384 6.774-7.542 6.554-19.133-0.701-26.384-7.251-7.254-18.842-7.475-26.384-0.701-7.542-6.774-19.133-6.554-26.384 0.701-7.254 7.251-7.475 18.842-0.701 26.384-6.774 7.542-6.554 19.133 0.701 26.384 7.251 7.254 18.842 7.475 26.384 0.701zM576 251.085c7.542 6.774 19.133 6.554 26.384-0.701 7.254-7.251 7.475-18.842 0.701-26.384 6.774-7.542 6.554-19.133-0.701-26.384-7.251-7.254-18.842-7.475-26.384-0.701-7.542-6.774-19.133-6.554-26.384 0.701-7.254 7.251-7.475 18.842-0.701 26.384-6.774 7.542-6.554 19.133 0.701 26.384 7.251 7.254 18.842 7.475 26.384 0.701zM512 630.17c7.542 6.774 19.133 6.554 26.384-0.701 7.254-7.251 7.475-18.845 0.701-26.384 6.774-7.542 6.554-19.133-0.701-26.384-7.251-7.254-18.842-7.475-26.384-0.701-7.542-6.774-19.133-6.554-26.384 0.701-7.254 7.251-7.475 18.842-0.701 26.384-6.774 7.539-6.554 19.133 0.701 26.384 7.251 7.254 18.842 7.475 26.384 0.701zM384 630.17c7.542 6.774 19.133 6.554 26.384-0.701 7.254-7.251 7.475-18.845 0.701-26.384 6.774-7.542 6.554-19.133-0.701-26.384-7.251-7.254-18.842-7.475-26.384-0.701-7.542-6.774-19.133-6.554-26.384 0.701-7.254 7.251-7.475 18.842-0.701 26.384-6.774 7.539-6.554 19.133 0.701 26.384 7.251 7.254 18.842 7.475 26.384 0.701zM640 630.17c7.542 6.774 19.133 6.554 26.384-0.701 7.254-7.251 7.475-18.845 0.701-26.384 6.774-7.542 6.554-19.133-0.701-26.384-7.251-7.254-18.842-7.475-26.384-0.701-7.542-6.774-19.133-6.554-26.384 0.701-7.254 7.251-7.475 18.842-0.701 26.384-6.774 7.539-6.554 19.133 0.701 26.384 7.251 7.254 18.842 7.475 26.384 0.701zM448 768c7.542 6.773 19.133 6.553 26.384-0.7 7.254-7.253 7.475-18.844 0.701-26.384 6.774-7.541 6.554-19.132-0.701-26.384-7.251-7.253-18.842-7.474-26.384-0.7-7.542-6.773-19.133-6.552-26.384 0.7-7.254 7.253-7.475 18.844-0.701 26.384-6.774 7.541-6.554 19.132 0.701 26.384 7.251 7.253 18.842 7.474 26.384 0.7zM320 768c7.542 6.773 19.133 6.553 26.384-0.7 7.254-7.253 7.475-18.844 0.701-26.384 6.774-7.541 6.554-19.132-0.701-26.384-7.251-7.253-18.842-7.474-26.384-0.7-7.541-6.773-19.132-6.552-26.384 0.7s-7.474 18.844-0.7 26.384c-6.773 7.541-6.553 19.132 0.7 26.384s18.844 7.474 26.384 0.7zM704 768c7.542 6.773 19.133 6.553 26.384-0.7 7.254-7.253 7.475-18.844 0.701-26.384 6.774-7.541 6.554-19.132-0.701-26.384-7.251-7.253-18.842-7.474-26.384-0.7-7.542-6.773-19.133-6.552-26.384 0.7-7.254 7.253-7.475 18.844-0.701 26.384-6.774 7.541-6.554 19.132 0.701 26.384 7.251 7.253 18.842 7.474 26.384 0.7zM576 768c7.542 6.773 19.133 6.553 26.384-0.7 7.254-7.253 7.475-18.844 0.701-26.384 6.774-7.541 6.554-19.132-0.701-26.384-7.251-7.253-18.842-7.474-26.384-0.7-7.542-6.773-19.133-6.552-26.384 0.7-7.254 7.253-7.475 18.844-0.701 26.384-6.774 7.541-6.554 19.132 0.701 26.384 7.251 7.253 18.842 7.474 26.384 0.7z" />
<glyph unicode="&#xe920;" glyph-name="compras-online" d="M960 832v-128c0-17.673-14.326-32-32-32s-32 14.327-32 32v128h-768v-400h64l-39.626-64h-24.374v-39.366l-37.472-60.522c-16.071 11.626-26.528 30.534-26.528 51.888v512c0 35.346 28.654 64 64 64h768c35.347 0 64-28.654 64-64zM896 368h-464v64h464v144c0 17.674 14.326 32 32 32s32-14.326 32-32v-256c0-35.347-28.653-64-64-64h-384v64h384v48zM512 128v64h80v96c0 17.674 14.326 32 32 32s32-14.326 32-32v-96h48c17.674 0 32-14.326 32-32s-14.326-32-32-32h-192zM480 240c0 97.203-78.797 176-176 176s-176-78.797-176-176c0-97.203 78.798-176 176-176s176 78.797 176 176zM544 240c0-132.547-107.453-240-240-240s-240 107.453-240 240 107.452 240 240 240c132.547 0 240-107.453 240-240zM229.141 128h148.565c10.522 0 19.344 2.874 26.461 8.624 7.12 5.75 10.678 12.877 10.678 21.376v90c0 8.499-3.558 15.626-10.678 21.376-7.117 5.75-15.939 8.624-26.461 8.624v30c0 16.499-7.274 30.624-21.821 42.374s-32.035 17.626-52.462 17.626c-20.428 0-37.915-5.875-52.461-17.626s-21.82-25.875-21.82-42.374v-30c-10.523 0-19.344-2.874-26.463-8.624s-10.678-12.877-10.678-21.376v-90c0-8.499 3.559-15.626 10.678-21.376s15.94-8.624 26.463-8.624zM266.282 278v30c0 8.499 3.559 15.626 10.678 21.376s15.94 8.624 26.463 8.624c10.523 0 19.345-2.874 26.462-8.624 7.12-5.75 10.678-12.877 10.678-21.376v-30h-74.281z" />
<glyph unicode="&#xe921;" glyph-name="computador" d="M896 256c0 53.021-42.979 96-96 96s-96-42.979-96-96v-96l0.125-4.938c2.57-50.723 44.512-91.062 95.875-91.062 53.021 0 96 42.979 96 96v96zM960 160c0-88.365-71.635-160-160-160s-160 71.635-160 160v96c0 88.365 71.635 160 160 160s160-71.635 160-160v-96zM768 288v96c0 17.674 14.326 32 32 32s32-14.326 32-32v-96c0-17.674-14.326-32-32-32s-32 14.326-32 32zM864 224c0-35.347-28.653-64-64-64s-64 28.653-64 64c0 35.347 28.653 64 64 64s64-28.653 64-64zM896 448v352c0 17.673-14.326 32-32 32h-704c-17.673 0-32-14.327-32-32v-448c0-17.674 14.327-32 32-32h416c17.674 0 32-14.326 32-32s-14.326-32-32-32h-416c-53.019 0-96 42.979-96 96v448c0 53.019 42.981 96 96 96h704c53.021 0 96-42.981 96-96v-352c0-17.674-14.326-32-32-32s-32 14.326-32 32zM640 432c17.674 0 32-14.326 32-32s-14.326-32-32-32h-544c-17.673 0-32 14.326-32 32s14.327 32 32 32h544zM336 272c0 17.674 14.326 32 32 32s32-14.326 32-32v-80h256c17.674 0 32-14.326 32-32s-14.326-32-32-32h-368c-17.673 0-32 14.326-32 32s14.327 32 32 32h48v80z" />
<glyph unicode="&#xe922;" glyph-name="computadores-escritorio" d="M576 163.046h96v100.573h-96v-100.573zM896 431.238v301.714h-560v-402.287h560c0 18.515 14.326 33.526 32 33.526s32-15.011 32-33.526c0-37.027-28.653-67.046-64-67.046h-160v-100.573h48c17.674 0 32-15.008 32-33.523s-14.326-33.523-32-33.523h-336c-17.674 0-32 15.008-32 33.523s14.326 33.523 32 33.523h64v100.573h-176c-35.346 0-64 30.019-64 67.046v402.287c0 37.029 28.654 67.048 64 67.048h560c35.347 0 64-30.018 64-67.048v-301.714c0-18.515-14.326-33.523-32-33.523s-32 15.008-32 33.523zM64 163.046v519.62c0 37.029 28.654 67.048 64 67.048h160c17.673 0 32-15.009 32-33.524s-14.327-33.524-32-33.524h-160v-150.859h160c17.673 0 32-15.008 32-33.523s-14.327-33.523-32-33.523h-160v-301.715h192v134.096c0 18.515 14.326 33.523 32 33.523s32-15.008 32-33.523v-134.096c0-37.027-28.653-67.046-64-67.046h-192c-35.346 0-64 30.019-64 67.046zM256 230.096c0-18.515-14.327-33.523-32-33.523s-32 15.008-32 33.523c0 18.515 14.327 33.523 32 33.523s32-15.008 32-33.523z" />
<glyph unicode="&#xe923;" glyph-name="conoce-mas" d="M268.133 823.823c89.841 58.301 197.611 82.468 303.751 68.156 106.141-14.315 203.651-66.169 274.842-146.188 11.744-13.204 10.547-33.442-2.656-45.188-13.203-11.738-33.411-10.544-45.155 2.656-61.021 68.59-144.611 113.044-235.594 125.312-90.976 12.267-183.338-8.467-260.344-58.437-77.010-49.977-133.586-125.909-159.437-214.001-25.849-88.086-19.286-182.522 18.5-266.186 37.789-83.667 104.317-151.034 187.5-189.875 83.181-38.842 177.53-46.611 265.939-21.875s165.021 80.346 215.968 156.717c50.944 76.371 72.867 168.467 61.75 259.597-2.141 17.542 10.33 33.514 27.875 35.654 17.542 2.141 33.485-10.365 35.626-27.907 12.97-106.317-12.563-213.773-72-302.874-59.437-89.094-148.832-153.952-251.971-182.813-103.146-28.858-213.232-19.818-310.282 25.501-97.044 45.318-174.63 123.92-218.717 221.53-44.088 97.613-51.754 207.792-21.594 310.563s96.156 191.35 186 249.657zM481.885 237.178v421.647c0 16.634 13.485 30.118 30.118 30.118s30.118-13.484 30.118-30.118v-421.647c0-16.634-13.485-30.118-30.118-30.118s-30.118 13.485-30.118 30.118zM301.18 478.118h421.646c16.634 0 30.118-13.485 30.118-30.118s-13.485-30.115-30.118-30.115h-421.646c-16.634 0-30.117 13.482-30.117 30.115s13.484 30.118 30.117 30.118zM527.062 402.826h-30.118v-165.648c0-8.317 6.742-15.059 15.059-15.059s15.059 6.742 15.059 15.059v165.648zM496.944 432.944h30.118v30.115h-30.118v-30.115zM737.885 448c0 8.317-6.742 15.059-15.059 15.059h-165.645v-30.115h165.645c8.317 0 15.059 6.739 15.059 15.056zM286.121 448c0-8.317 6.742-15.056 15.059-15.056h165.646v30.115h-165.646c-8.317 0-15.059-6.742-15.059-15.059zM527.062 658.825c0 8.317-6.742 15.059-15.059 15.059s-15.059-6.742-15.059-15.059v-165.647h30.118v165.647zM557.181 493.178h165.645c24.95 0 45.178-20.227 45.178-45.178s-20.227-45.174-45.178-45.174h-165.645v-165.648c0-24.95-20.227-45.178-45.178-45.178s-45.178 20.227-45.178 45.178v165.648h-165.646c-24.95 0-45.176 20.224-45.176 45.174s20.226 45.178 45.176 45.178h165.646v165.647c0 24.95 20.227 45.177 45.178 45.177s45.178-20.226 45.178-45.177v-165.647z" />
<glyph unicode="&#xe924;" glyph-name="control-remoto" d="M569.619 540.458c-0.003 16.346-6.304 31.834-17.219 43.094-10.883 11.226-25.43 17.344-40.374 17.344-14.947 0-29.491-6.115-40.374-17.344-10.918-11.261-17.219-26.749-17.219-43.094 0-16.342 6.304-31.827 17.219-43.091 10.883-11.229 25.427-17.344 40.374-17.344s29.491 6.112 40.374 17.344c10.918 11.264 17.219 26.746 17.219 43.091zM633.619 540.458c0-32.685-12.56-64.246-35.251-87.654-22.72-23.44-53.766-36.781-86.342-36.781s-63.622 13.338-86.346 36.781c-22.685 23.408-35.248 54.97-35.248 87.654 0 32.682 12.57 64.221 35.248 87.626 22.723 23.443 53.77 36.812 86.346 36.813 32.579 0 63.622-13.37 86.342-36.813 22.685-23.405 35.248-54.941 35.251-87.626zM390.432 170.227v0.438c0 17.67 14.326 32 32 32s32-14.33 32-32v-0.438c0-17.674-14.326-32-32-32s-32 14.326-32 32zM569.619 170.227v0.438c0 17.667 14.333 31.99 32 32 17.674 0 32-14.33 32-32v-0.438c0-17.674-14.326-32-32-32-17.667 0.006-32 14.33-32 32zM390.432 308.883v0.467c0.006 17.67 14.33 32 32 32s31.994-14.33 32-32v-0.467c0-17.674-14.326-32-32-32s-32 14.326-32 32zM569.619 308.883v0.467c0.006 17.664 14.336 31.994 32 32 17.67 0 31.994-14.33 32-32v-0.467c0-17.674-14.326-32-32-32-17.667 0.006-32 14.33-32 32zM480.026 771.57v92.437c0 17.671 14.33 31.997 32 32 17.674 0 32-14.327 32-32v-92.437c0-17.673-14.326-32-32-32-17.67 0.004-32 14.329-32 32zM704.032 592.006v179.564c-0.003 16.345-6.304 31.831-17.219 43.094-10.883 11.228-25.43 17.342-40.374 17.344h-268.813c-14.947-0.002-29.491-6.115-40.374-17.344-10.918-11.263-17.219-26.748-17.219-43.094v-647.125c0-16.346 6.301-31.83 17.219-43.094 10.883-11.226 25.427-17.341 40.374-17.344h268.813c14.944 0.003 29.491 6.118 40.374 17.344 10.915 11.264 17.216 26.749 17.219 43.094v147.562c0 17.674 14.326 32 32 32s32-14.326 32-32v-147.562c-0.003-32.678-12.57-64.218-35.251-87.626-22.72-23.44-53.766-36.81-86.342-36.813h-268.813c-32.576 0.003-63.624 13.373-86.344 36.813-22.68 23.408-35.248 54.947-35.25 87.626v647.125c0.002 32.68 12.57 64.219 35.25 87.625 22.72 23.442 53.768 36.811 86.344 36.812h268.813c32.576-0.002 63.622-13.371 86.342-36.812 22.682-23.406 35.248-54.945 35.251-87.625v-179.564c0-17.67-14.326-32-32-32s-32 14.33-32 32z" />
<glyph unicode="&#xe925;" glyph-name="control-videojuegos" d="M704.003 336.688c9.722 0 18.928-4.234 25.002-11.52l61.562-73.882c27.856-20.918 47.261-27.715 58.406-29.395 6.074-0.918 9.194-0.32 10.282-0.032 0.95 0.778 1.958 1.494 2.998 2.16 10.845 6.941 19.709 20.115 25.814 37.587 5.974 17.104 7.936 34.496 7.936 44.365 0 55.482-19.504 120.198-45.53 180.157-25.834 59.51-56.845 111.526-77.094 140.685-1.731 2.493-2.966 5.242-3.875 8.099-0.224 0.269-0.806 0.902-2.032 1.859-3.133 2.448-8.64 5.616-17.248 8.999-17.222 6.766-41.565 12.457-70.157 16.918-56.81 8.862-123.773 11.879-168.064 11.879-93.76 0-158.65-10.029-201.093-21.837-21.226-5.906-36.46-12.155-46.75-17.578-5.133-2.704-8.819-5.085-11.312-6.96-2.605-1.958-3.404-2.957-3.25-2.758-0.908-1.165-1.898-2.272-2.969-3.299-32.545-31.242-60.046-89.002-80.875-153.283-20.083-61.981-32.43-125.114-37.719-164.682 0.359-35.45 11.292-53.482 20.687-62.573 10.204-9.872 21.812-12.416 27.281-12.416 13.756 0 29.628 3.786 44.844 9.446 13.35 4.97 24.518 10.816 31.094 14.758l77.438 74.301 2.342 2.042c5.696 4.48 12.854 6.96 20.282 6.96h160c17.674 0 32-13.754 32-30.717 0-16.966-14.326-30.717-32-30.717h-146.749l-70.626-67.792c-1.49-1.43-3.122-2.717-4.875-3.84-9.957-6.371-26.43-15.088-45.781-22.288-19.184-7.136-43.324-13.587-67.969-13.587-21.198 0-49.59 8.218-72.719 30.595-23.777 23.011-39.281 58.269-39.281 107.629 0 1.274 0.085 2.544 0.25 3.808 5.534 42.493 18.701 110.352 40.406 177.341 21.087 65.075 51.841 134.528 95.375 177.128 7.92 9.288 19.666 17.585 33.312 24.777 15.209 8.015 34.98 15.845 59.75 22.737 49.555 13.787 120.672 24.237 218.906 24.237 46.374 0 117.021-3.122 178.346-12.689 30.461-4.753 60.314-11.341 84.125-20.698 11.907-4.68 23.642-10.578 33.405-18.208 8.378-6.55 16.605-15.454 21.187-27.117 22.323-32.707 53.962-86.454 80.47-147.523 27.302-62.902 50.467-136.413 50.467-203.795 0-15.725-2.832-39.795-11.248-63.894-8.058-23.056-22.614-49.898-48.688-67.581-14.851-12.442-37.184-16.886-61.034-13.29-25.85 3.901-56.246 17.264-91.030 43.974-1.843 1.418-3.523 3.030-4.998 4.8l-54.406 65.274h-48.595c-17.674 0-32 13.75-32 30.717 0 16.963 14.326 30.717 32 30.717h64zM336.003 428.835v46.077h-47.999c-17.673 0-32 13.75-32 30.714 0 16.966 14.327 30.717 32 30.717h47.999v46.077c0 16.963 14.326 30.717 32 30.717s32-13.754 32-30.717v-46.077h48c17.674 0 32-13.75 32-30.717 0-16.963-14.326-30.714-32-30.714h-48v-46.077c0-16.963-14.326-30.717-32-30.717s-32 13.754-32 30.717zM672.003 474.912c0-25.446-21.491-46.077-48-46.077s-48 20.63-48 46.077c0 25.446 21.491 46.074 48 46.074s48-20.627 48-46.074zM768.003 567.059c0-25.446-21.491-46.074-48-46.074s-48 20.627-48 46.074c0 25.446 21.491 46.077 48 46.077s48-20.63 48-46.077z" />
<glyph unicode="&#xe926;" glyph-name="cubiertos" d="M633.734 886.751c18.854 12.687 43.264 12.57 63.331-2.75 81.942-62.627 188.189-226.894 198.87-473.981 1.546-35.805-15.542-72.483-50.342-89.107-15.162-7.235-34.819-15.168-58.858-22.253l21.99-158.211c3.965-28.621 0.835-58.029-12.093-83.232-13.258-25.85-35.795-45.082-66-53.635l0.032-0.032c-56.278-15.955-124.71 21.555-124.71 91.798v735.958c0 22.405 10.083 43.538 27.779 55.446zM284.444 892.908c16.941-0.817 30.055-15.793 29.28-33.443l-9.57-216.378c-0.783-17.654-15.155-31.315-32.1-30.506-16.945 0.813-30.054 15.792-29.28 33.444l9.57 216.378c0.782 17.655 15.153 31.317 32.1 30.505zM377.203 892.908c16.944 0.806 31.318-12.853 32.102-30.505l9.539-216.378c0.774-17.652-12.336-32.631-29.28-33.444-16.941-0.803-31.318 12.854-32.102 30.506l-9.539 216.378c-0.774 17.653 12.336 32.63 29.28 33.443zM667.395 95.347c0-18.349 20.442-37.574 47.13-30.006 14.186 4.016 22.797 12.029 27.93 22.035 5.459 10.646 7.987 25.67 5.459 43.914l-23.43 168.714-0.058 0.314c-1.664 12.832 1.357 25.805 8.368 36.442l2.762 3.843c6.79 8.509 16.013 14.544 26.31 17.286l17.52 5.219c16.512 5.331 30.045 10.97 40.589 16.003 8.851 4.224 15.168 14.4 14.579 28.035-9.629 222.835-102.387 365.805-167.158 419.908v-731.707zM428.208 892.937c40.749 0 77.603-29.293 84.781-72.98l3.478-22.285c8.4-56.157 17.965-140.466 17.072-230.069-0.624-63.965-41.098-121.51-104.342-139.053l-6.208-1.594c-2.378-0.547-4.813-0.976-7.261-1.501l31.891-284.355 0.509-5.814c4.042-60.013-32.733-121.725-96.541-130.739l0.032-0.032c-6.701-0.989-13.456-1.552-20.221-1.686-0.189-0.003-0.381 0-0.57 0-3.277 0-6.71 0.173-10.17 0.467l-10.411 1.19c-65.994 9.184-103.151 74.758-96.21 136.614l3.84 34.381c1.968 17.555 17.228 30.115 34.080 28.067 16.851-2.051 28.908-17.952 26.94-35.507l-3.84-34.349c-3.79-33.805 16.611-62.038 43.32-65.76 5.542-0.771 9.689-1.062 12.419-1.062 4.077 0.102 8.147 0.403 12.182 0.998l0.24 0.064c26.736 3.718 47.162 31.942 43.379 65.76l-35.251 314.301c-1.939 17.283 9.734 33.014 26.282 35.411 11.155 1.616 21.91 3.718 32.099 6.064l6.989 1.936c34.154 11.040 55.046 42.25 55.382 76.858l0.029 18.128c-0.554 90.217-11.619 173.559-19.709 222.752-1.773 10.794-11.245 19.784-24.211 19.784h-194.82c-12.935 0-22.433-8.985-24.21-19.784-8.628-52.46-20.598-143.79-19.65-240.852 0.37-36.922 24.104-70.010 62.4-78.854 10.615-2.451 21.328-4.458 32.1-6.032 8.303-1.213 15.772-5.914 20.67-13.002 4.898-7.094 6.818-15.978 5.28-24.566l-18.6-103.923c-3.113-17.373-19.173-28.838-35.85-25.597-16.674 3.242-27.68 19.974-24.57 37.347l12.93 72.198-5.25 1.094c-66.805 15.43-109.888 74.656-110.55 140.678-1 102.366 11.562 197.826 20.52 252.29 7.173 43.681 44.038 73.012 84.78 73.012h194.82z" />
<glyph unicode="&#xe927;" glyph-name="portatiles" d="M131.439 160h761.118l-48.637 91.686h-654.111l-58.37-91.686zM830.963 491.251v244.749h-626.454v-420.314h626.454v51.875c0 17.67 15.082 31.997 33.674 32 18.598 0 33.674-14.326 33.674-32v-76.218l54.394-102.531c22.576-42.563-9.987-92.81-60.147-92.813h-761.118c-52.451 0.010-84.762 54.477-57.614 97.126l63.336 99.498v443.376c0 35.346 30.153 63.999 67.348 64h626.454c37.197 0 67.347-28.654 67.347-64v-244.749c0-17.674-15.075-32-33.674-32-18.592 0.003-33.674 14.33-33.674 32zM602.086 704c18.598 0 33.674-14.327 33.674-32s-15.075-32-33.674-32h-185.206c-18.598 0-33.674 14.327-33.674 32s15.075 32 33.674 32h185.206z" />
<glyph unicode="&#xe928;" glyph-name="consola-videojuego" d="M704 416c3.44 0 6.861-0.57 10.125-1.658 91.37-30.458 133.866-106.762 150.72-182.592 16.746-75.357 9.786-155.475-1.594-206.688-3.254-14.64-16.253-25.062-31.251-25.062h-128c-13.334 0-25.283 8.266-29.968 20.749-31.584 84.221-120.038 107.251-162.032 107.251-41.859 0-77.603-17.37-106.125-40.749-28.784-23.597-48.438-51.942-57.251-69.565-5.421-10.838-16.502-17.686-28.624-17.686h-128c-14.684 0-27.47 10.003-31.031 24.25-33.613 134.458-13.818 229.875 30.75 294 43.93 63.197 108.637 91.146 156.064 97.469l4.218 0.282h352zM354.467 352c-32.496-4.822-78.691-24.95-110.186-70.25-29.281-42.125-48.77-110.326-26.719-217.75h83.844c14.038 22.589 35.538 49.498 63.906 72.749 36.544 29.955 86.147 55.251 146.688 55.251 50.758 0 162.237-24.893 212.998-128h80.346c6.698 43.581 8.787 100.922-2.97 153.843-13.741 61.843-44.768 112.474-104.093 134.157h-343.814zM128 544h768v128h-768v-128zM288 640c17.673 0 32-14.326 32-32s-14.327-32-32-32h-96c-17.673 0-32 14.326-32 32s14.327 32 32 32h96zM800 640c17.674 0 32-14.326 32-32s-14.326-32-32-32h-32c-17.674 0-32 14.326-32 32s14.326 32 32 32h32zM960 512c0-17.674-14.326-32-32-32h-832c-17.673 0-32 14.326-32 32v192c0 7.266 2.461 14.326 7 20l128 160 2.437 2.687c5.961 5.929 14.059 9.313 22.563 9.313h96c17.674 0 32-14.327 32-32s-14.326-32-32-32h-80.594l-76.813-96h698.811l-76.81 96h-336.595c-17.674 0-32 14.327-32 32s14.326 32 32 32h352c9.722 0 18.928-4.409 24.998-12l128-160c4.541-5.674 7.002-12.734 7.002-20v-192z" />
<glyph unicode="&#xe929;" glyph-name="coleccionables" d="M64 174.698v230.125c0.001 17.062 14.328 30.896 32 30.896s31.999-13.834 32-30.896v-230.125c0-17.066-14.327-30.896-32-30.896s-32 13.83-32 30.896zM896 174.698v230.125c0 17.062 14.326 30.896 32 30.896s32-13.834 32-30.896v-230.125c0-17.066-14.326-30.896-32-30.896s-32 13.83-32 30.896zM720 234.349c17.674 0 32-13.834 32-30.896-0.003-17.062-14.33-30.899-32-30.899h-416c-17.67 0-31.995 13.837-32 30.899 0 17.062 14.327 30.896 32 30.896h416zM420.563 376.067c-0.003 7.085-2.912 13.872-8.064 18.858-5.146 4.979-12.106 7.75-19.344 7.754-7.242 0-14.224-2.771-19.373-7.754-5.152-4.986-8.061-11.773-8.064-18.858 0-7.091 2.909-13.898 8.064-18.886 5.149-4.982 12.131-7.754 19.373-7.754 7.238 0.003 14.198 2.774 19.344 7.754 5.155 4.989 8.064 11.795 8.064 18.886zM658.282 376.067c-0.003 7.085-2.912 13.872-8.064 18.858-5.149 4.982-12.128 7.754-19.373 7.754-7.238-0.003-14.198-2.774-19.344-7.754-5.152-4.986-8.061-11.773-8.064-18.858 0-7.091 2.909-13.898 8.064-18.886 5.146-4.979 12.106-7.75 19.344-7.754 7.242 0 14.224 2.771 19.373 7.754 5.155 4.989 8.064 11.795 8.064 18.886zM777.155 339.83v93.747c0 68.122-27.955 133.462-77.686 181.606s-117.174 75.16-187.469 75.16c-70.294 0-137.738-27.016-187.469-75.16-49.733-48.144-77.687-113.485-77.687-181.606v-345.174c0-7.085 2.917-13.869 8.062-18.858 5.149-4.986 12.13-7.782 19.375-7.782h475.437c7.245 0 14.227 2.797 19.376 7.782 5.146 4.989 8.061 11.776 8.061 18.858v66.048c0 17.066 14.326 30.896 32 30.896 17.667-0.006 32-13.837 32-30.896v-66.048c0-23.424-9.613-45.926-26.749-62.515-17.139-16.592-40.413-25.917-64.688-25.92h-475.437c-24.274 0.003-47.549 9.328-64.688 25.92-17.136 16.589-26.75 39.091-26.75 62.515v345.174c0 84.458 34.66 165.488 96.375 225.236 54.135 52.406 125.21 84.673 200.781 91.815v114.444c0 17.064 14.326 30.896 32 30.896s32-13.833 32-30.896v-114.444c75.571-7.142 146.646-39.409 200.781-91.815 61.715-59.748 96.374-140.778 96.374-225.236v-93.747c0-17.059-14.333-30.89-32-30.896-17.674 0-32 13.834-32 30.896zM484.563 376.067c0-23.424-9.613-45.926-26.752-62.515-17.136-16.586-40.387-25.917-64.656-25.92-24.272 0-47.549 9.328-64.688 25.92-17.135 16.589-26.748 39.091-26.748 62.515 0.004 23.421 9.617 45.901 26.748 62.486 17.142 16.592 40.416 25.92 64.688 25.92 24.269-0.003 47.52-9.331 64.656-25.92 17.136-16.586 26.749-39.066 26.752-62.486zM722.282 376.067c0-23.424-9.613-45.926-26.749-62.515-17.139-16.592-40.416-25.92-64.688-25.92-24.269 0.003-47.52 9.334-64.656 25.92-17.139 16.589-26.752 39.091-26.752 62.515 0.003 23.421 9.616 45.901 26.752 62.486 17.136 16.589 40.387 25.917 64.656 25.92 24.272 0 47.549-9.328 64.688-25.92 17.133-16.586 26.746-39.066 26.749-62.486z" />
<glyph unicode="&#xe92a;" glyph-name="decoracion" d="M389.61 605.19c19.555 41.559 65.456 58.879 106.723 49.783 105.645-23.29 275.818-64.554 398.038-106.231 46.49-15.862 72.698-62.694 63.962-109.334-11.869-63.36-28.467-142.275-47.466-215.238-18.73-71.926-40.646-141.459-63.926-183.875-18.262-33.27-54.694-43.379-84.662-39.526-107.779 13.853-298.682 49.446-430.070 111.946-39.507 18.794-58.479 60.934-51.408 101.101 19.012 107.994 57.564 282.458 108.809 391.376zM481.526 589.706c-14.291 3.146-25.965-3.306-30.374-12.675-47.142-100.195-84.547-266.934-103.51-374.646-2.323-13.203 4.048-24.653 14.013-29.402 121.203-57.654 303.184-92.218 409.402-105.872 4.931-0.63 8.957 0.038 11.626 1.146 2.413 1.002 3.741 2.314 4.605 3.888 18.877 34.397 39.133 96.624 57.898 168.688 18.496 71.030 34.755 148.352 46.438 210.73 2.845 15.187-5.683 29.28-19.443 33.971-118.451 40.39-285.539 81.002-390.653 104.173zM150.527 874.621c95.193 19.675 271.277 36.999 455.341-1.96 29.213-6.183 57.181-26.419 66.81-59.093 9.872-33.504 17.677-83.69 6.726-137.688-3.68-18.105-21.555-29.846-39.914-26.231-18.368 3.623-30.304 21.249-26.634 39.363 8.246 40.652 2.416 79.564-5.331 105.871-1.424 4.829-6.387 10.334-15.898 12.348-172.49 36.508-338.64 20.188-427.156 1.894-10.017-2.070-17.435-9.559-19.278-19.077-23.168-120.014-11.909-285.472 1.689-389.446 1.746-13.293 12.57-24.358 27.459-26.461l69.558-9.798c18.54-2.611 31.425-19.546 28.784-37.827-2.649-18.285-19.816-30.995-38.356-28.387l-69.558 9.798c-43.634 6.147-79.363 39.587-85.193 84.115-13.795 105.475-26.29 279.649-1.027 410.517 7.040 36.443 35.561 64.53 71.976 72.062z" />
<glyph unicode="&#xe92b;" glyph-name="deportes" d="M147.627 29.866v104.531c0 16.496 13.372 29.869 29.867 29.869s29.867-13.373 29.867-29.869v-104.531c0-16.496-13.372-29.869-29.867-29.869s-29.867 13.373-29.867 29.869zM816.653 29.866v104.531c0 16.496 13.37 29.869 29.866 29.869 16.49-0.006 29.866-13.376 29.866-29.869v-104.531c0-16.493-13.376-29.862-29.866-29.869-16.496 0-29.866 13.373-29.866 29.869zM888.109 887.25c11.664 11.664 30.57 11.664 42.234 0s11.664-30.57 0-42.234l-87.235-87.209 70.058-105.088c5.325-7.989 6.49-18.045 3.12-27.037l-125.446-334.515c-5.792-15.443-22.995-23.261-38.442-17.469-15.443 5.792-23.261 22.995-17.469 38.442l120.019 320.192-54.922 82.396-78.749-78.78c-11.664-11.664-30.57-11.664-42.234 0s-11.664 30.57 0 42.234l209.066 209.067zM64 218.032c0.003 62.675 50.812 113.485 113.487 113.488h215.047c16.493 0 29.866-13.373 29.866-29.869s-13.373-29.866-29.866-29.866h-215.047c-29.686-0.003-53.751-24.067-53.754-53.754 0-29.69 24.072-53.763 53.76-53.766h669.025c29.69 0.003 53.747 24.077 53.747 53.766-0.003 29.686-24.067 53.75-53.754 53.754h-304.646c-16.493 0-29.866 13.37-29.866 29.866s13.373 29.869 29.866 29.869h304.646c62.675-0.003 113.485-50.813 113.488-113.488 0-62.682-50.81-113.485-113.488-113.488h-669.025c-62.678 0.003-113.487 50.806-113.487 113.488zM579.766 801.354c-0.003 19.006-15.434 34.412-34.438 34.412-19.005-0.005-34.406-15.409-34.413-34.412 0-19.007 15.405-34.436 34.413-34.441 19.008 0 34.438 15.431 34.438 34.441zM640 801.354c0-52.277-42.397-94.676-94.672-94.676-52.272 0.005-94.646 42.402-94.646 94.676 0.006 52.269 42.378 94.641 94.646 94.646 52.272 0 94.666-42.374 94.672-94.646zM386.16 414.118v52.704c0 4.339-0.954 8.63-2.794 12.56s-4.547 7.398-7.882 10.176l-32.118 26.794c-8.685 7.242-15.795 16.221-20.822 26.352-5.028 10.138-7.9 21.226-8.411 32.531-0.509 11.296 1.351 22.573 5.441 33.117 4.093 10.547 10.349 20.147 18.352 28.147l53.379 53.381c0.493 0.494 0.854 1.1 1.059 1.765 0.208 0.673 0.253 1.396 0.118 2.088s-0.442 1.335-0.883 1.883c-0.438 0.546-1.002 0.987-1.645 1.265l-0.032 0.029c-15.958 6.832-33.334 9.686-50.643 8.353-17.312-1.335-34.067-6.829-48.793-16.029l-67.997-42.5c-14.106-8.813-32.685-4.517-41.499 9.588-8.812 14.104-4.542 32.684 9.559 41.5l68.027 42.5c22.963 14.346 49.061 22.917 76.058 25 26.979 2.080 54.058-2.415 78.938-13.059l0.029 0.029c9.709-4.147 18.253-10.636 24.883-18.853 6.624-8.215 11.146-17.93 13.146-28.294s1.418-21.056-1.677-31.147c-3.094-10.087-8.627-19.246-16.086-26.706l-53.354-53.411c-2.083-2.083-3.728-4.579-4.794-7.325-1.062-2.742-1.542-5.68-1.411-8.618 0.134-2.941 0.899-5.834 2.205-8.47 1.309-2.63 3.155-4.97 5.414-6.851l32.115-26.765c10.118-8.429 18.266-18.989 23.853-30.912 5.584-11.926 8.499-24.947 8.499-38.118v-52.704c-0.003-16.627-13.491-30.112-30.115-30.118-16.634 0-30.115 13.485-30.118 30.118zM265.907 499.936c11.761 11.763 30.826 11.763 42.587 0 11.749-11.763 11.759-30.829 0-42.589l-10.588-10.586-0.029 0.029c-16.99-17.021-30.93-31.686-49.528-39.44l-0.088-0.032c-18.679-7.715-38.989-7.174-62.939-7.174h-27.205c-16.633 0-30.117 13.482-30.117 30.115 0.006 16.63 13.487 30.118 30.117 30.118h27.205c28.637 0 34.774 0.531 39.822 2.589 5.078 2.115 9.845 6.045 30.146 26.381l0.029 0.032 10.588 10.557zM561.456 637.846c16.634 0 30.118-13.485 30.118-30.115 0-16.634-13.485-30.118-30.118-30.118h-96.79c-16.634 0-30.118 13.485-30.118 30.118 0 16.63 13.485 30.115 30.118 30.115h96.79z" />
<glyph unicode="&#xe92c;" glyph-name="disco-externo" d="M534.858 521.594c17.514 0 31.712-14.326 31.712-32-0.003-17.67-14.198-32-31.712-32h-45.738c-17.514 0-31.709 14.33-31.712 32 0 17.674 14.195 32 31.712 32h45.738zM534.858 688c17.514 0 31.712-14.327 31.712-32s-14.198-32-31.712-32h-45.738c-17.517 0-31.712 14.326-31.712 32s14.195 32 31.712 32h45.738zM800.57 156.813v259.187c0 17.674 14.198 32 31.712 32s31.712-14.326 31.712-32v-259.187c0-17.674-14.198-32-31.712-32s-31.712 14.326-31.712 32zM800.576 640v182.406c0 1.403-0.592 3.512-2.912 5.625-2.438 2.219-6.416 3.969-11.149 3.969h-549.065c-4.724-0.004-8.679-1.752-11.118-3.969-2.321-2.114-2.909-4.221-2.911-5.625v-665.594c0-17.674-14.197-32-31.711-32s-31.711 14.326-31.711 32v665.594c0.002 20.656 9.050 39.706 23.876 53.187 14.717 13.38 34.040 20.403 53.575 20.406h549.065c19.536 0 38.858-7.029 53.578-20.406 14.826-13.482 23.904-32.529 23.907-53.187v-182.406c0-17.67-14.202-31.997-31.712-32-17.514 0-31.712 14.326-31.712 32zM800.57 156.813c0 23.472-10.23 46.752-29.722 64.474-19.603 17.818-46.848 28.314-75.843 28.314h-366.045c-28.987-0.003-56.211-10.499-75.809-28.314-19.493-17.722-29.73-41.002-29.73-64.474 0.004-23.469 10.24-46.774 29.73-64.496 17.595-15.99 41.338-26.035 66.983-27.936v71.626c0.003 17.667 14.205 31.997 31.712 32 17.514 0 31.709-14.33 31.712-32v-72h50.973v72c0.003 17.67 14.202 32 31.712 32 17.51-0.003 31.709-14.333 31.712-32v-72h50.973v72c0.003 17.67 14.202 32 31.712 32 17.507-0.006 31.709-14.336 31.712-32v-72h82.653c28.998 0 56.24 10.493 75.843 28.31 19.488 17.722 29.718 41.027 29.722 64.496zM863.994 156.813c-0.003-42.72-18.704-82.944-50.688-112.026-31.885-28.986-74.49-44.781-118.301-44.781h-366.045c-43.804 0.003-86.388 15.795-118.266 44.781-31.988 29.082-50.692 69.302-50.695 112.026 0 42.726 18.704 82.918 50.695 112.006 31.878 28.982 74.464 44.778 118.266 44.781h366.045c43.811 0 86.416-15.795 118.301-44.781 31.99-29.088 50.688-69.28 50.688-112.006zM695.014 115.2c25.27 0 45.757 18.624 45.757 41.6s-20.486 41.6-45.757 41.6c-25.267 0-45.754-18.624-45.754-41.6s20.486-41.6 45.754-41.6zM626.371 64c17.514 0 31.712-14.326 31.712-32s-14.198-32-31.712-32h-320.273c-17.514 0-31.711 14.326-31.711 32s14.197 32 31.711 32h320.273z" />
<glyph unicode="&#xe92d;" glyph-name="drones" d="M352 768c17.674 0 32-13.977 32-31.219s-14.326-31.219-32-31.219h-96v-187.315h64v62.438c0 17.242 14.326 31.219 32 31.219h96c17.674 0 32-13.978 32-31.219s-14.326-31.219-32-31.219h-64v-59.36l26.218-127.955h189.971l39.811 129.478v57.837h-80c-17.674 0-32 13.978-32 31.219s14.326 31.219 32 31.219h112c17.674 0 32-13.978 32-31.219v-62.438h64v187.315h-96c-17.674 0-32 13.977-32 31.219s14.326 31.219 32 31.219h256c17.674 0 32-13.977 32-31.219s-14.326-31.219-32-31.219h-96v-218.534c0-17.242-14.326-31.219-32-31.219h-104.189l-31.373-101.92c60.822-19.19 143.2-72.765 166.938-188.534 3.466-16.906-7.77-33.354-25.094-36.739-17.328-3.382-34.189 7.578-37.658 24.483-21.878 106.73-107.92 141.843-146.906 146.614h-235.437c-38.704-4.739-119.722-39.053-130.438-143.597-1.76-17.155-17.447-29.674-35.031-27.958-17.584 1.718-30.415 17.021-28.656 34.176 12.24 119.398 93.85 173.622 154.343 192.285l-20.717 101.19h-101.782c-17.673 0-32 13.978-32 31.219v218.534h-96c-17.673 0-32 13.977-32 31.219s14.327 31.219 32 31.219h256z" />
<glyph unicode="&#xe92e;" glyph-name="eliminar" d="M218.227 727.511l-3.311-0.175c-16.263-1.708-28.953-15.864-28.953-33.076 0.001-18.361 14.447-33.25 32.264-33.25l590.858 0.175c15.184 1.594 27.248 14.041 28.784 29.692l0.17 3.383c0 18.363-14.448 33.251-32.266 33.251v59.734c49.83 0 90.227-41.632 90.227-92.984s-40.397-92.984-90.227-92.984h-527.263l47.263-514.506c1.414-15.328 13.901-27.034 28.842-27.037h314.771c14.941 0.003 27.427 11.709 28.842 27.037l38.518 419.277c1.51 16.413 15.629 28.464 31.555 26.918 15.936-1.552 27.629-16.128 26.125-32.55l-38.493-419.274c-4.23-46-41.709-81.139-86.547-81.142h-314.771c-44.837 0.006-82.317 35.142-86.548 81.142l-47.745 520.134h-2.094c-48.272 0-87.697 39.072-90.113 88.201l-0.113 4.783 0.113 4.783c2.414 49.131 41.84 88.201 90.113 88.201v-59.734zM805.773 787.245v-59.734h-587.546v59.734h587.546zM359.85 171.853v315.587c0 16.496 12.976 29.866 28.979 29.866 16.006 0 28.982-13.37 28.982-29.866v-315.587c-0.006-16.49-12.979-29.866-28.982-29.866-16 0-28.973 13.376-28.979 29.866zM591.699 171.853v315.587c0 16.496 12.973 29.866 28.979 29.866s28.982-13.37 28.982-29.866v-315.587c-0.006-16.49-12.979-29.866-28.982-29.866-16 0-28.976 13.376-28.979 29.866zM475.773 140.291v410.262c0 16.493 12.976 29.866 28.982 29.866s28.979-13.373 28.979-29.866v-410.262c-0.006-16.49-12.979-29.869-28.979-29.869-16.003 0-28.973 13.379-28.982 29.869zM591.699 787.236v19.163c0 16.495-12.976 29.867-28.982 29.867h-86.944c-16.006 0-28.979-13.372-28.979-29.867v-19.163c-0.003-16.494-12.976-29.867-28.982-29.867s-28.979 13.373-28.982 29.867v19.163c0 49.485 38.928 89.601 86.944 89.601h86.944c48.019 0 86.944-40.116 86.944-89.601v-19.163c-0.003-16.494-12.976-29.867-28.982-29.867-16.003 0-28.979 13.373-28.979 29.867z" />
<glyph unicode="&#xe92f;" glyph-name="eliptica" d="M790.15 895.301c17.552 3.968 35.075-6.782 39.126-24 4.045-17.217-6.915-34.401-24.47-38.374l-132.259-29.937c-20.426-4.624-31.178-26.663-22.019-45.156l65.382-131.997v52.686c0 37.933 22.774 72.307 58.115 87.718l108.077 47.124c16.467 7.178 35.76-0.1 43.078-16.25s-0.102-35.072-16.57-42.249l-108.077-47.093c-11.779-5.136-19.37-16.604-19.37-29.25v-184.436l83.094-167.808c23.206-46.874 4.038-103.35-43.171-127.251l-40.944-20.717c-6.829-46.474-47.587-82.186-96.861-82.186h-4.269c0.685-2.317 1.43-4.586 2.006-6.877 6.707-26.707-3.098-50.595-20.266-66.403-16.314-15.027-38.803-22.72-61.046-22.72h-405.828c-54.058 0-97.881 42.979-97.881 96v63.997c0 57.35 36.523 95.597 75.768 118.874 38.968 23.114 85.395 34.794 119.292 39.408 13.628 1.853 26.776 0.259 38.489-3.187l151.027-44.438c0.79-0.23 1.59-0.49 2.358-0.781 69.894-26.368 117.926-59.626 149.658-94.342l83.318 42.186v261.53l-124.070 250.496c-27.478 55.48 4.771 121.629 66.048 135.498l132.262 29.937zM357.014 160.122c18.019 0 32.627-14.326 32.627-31.997 0-17.674-14.608-32-32.627-32h-81.567c-18.019 0-32.627 14.326-32.627 32 0 17.67 14.608 31.997 32.627 31.997h81.567zM781.165 250.842l10.003 5.062c15.738 7.965 22.141 26.813 14.403 42.435l-24.406 49.28v-96.778zM161.254 96.125c0-17.674 14.607-32 32.627-32h405.828c7.699 0 13.578 2.797 16.378 5.373 1.254 1.158 1.603 1.965 1.69 2.221 0.045 0.141 0.246 0.726-0.128 2.218-1.693 6.736-4.314 14.208-8.189 22.189h-138.25c-18.019 0-32.627 14.326-32.627 32 0 17.67 14.608 31.997 32.627 31.997h82.65c-22.899 17.366-53.299 34.544-93.581 49.814l-149.496 43.968c-4.252 1.251-7.852 1.485-10.738 1.091-28.609-3.891-65.639-13.658-94.503-30.781-28.59-16.957-44.288-37.731-44.288-64.093v-63.997z" />
<glyph unicode="&#xe930;" glyph-name="email" d="M480 272c0 97.203-78.797 176-176 176s-176-78.797-176-176c0-97.203 78.798-176 176-176s176 78.797 176 176zM544 272c0-132.547-107.453-240-240-240s-240 107.453-240 240 107.452 240 240 240c132.547 0 240-107.453 240-240zM673.562 583.811l222.438-219.312v411.438l-222.438-192.126zM160 576v224c0 35.346 28.654 64 64 64h688c26.509 0 48-21.49 48-48v-528c0-35.347-28.653-64-64-64h-288c-17.674 0-32 14.326-32 32s14.326 32 32 32h274.438l-257.469 253.875-22.656-19.594c-24.451-21.117-60.794-20.704-84.752 0.97l-17.936 16.218-27.219-32.157c-11.424-13.478-31.613-15.139-45.094-3.718-13.478 11.424-15.139 31.613-3.718 45.094l28.531 33.75-228.125 206.436v-212.875c0-17.674-14.327-32-32-32s-32 14.326-32 32zM560.499 570.72l265.501 229.28h-518.938l253.437-229.28zM375.914 234.25c0-5.696 0.918-9.68 2.758-11.958 2.070-2.048 4.598-3.075 7.59-3.075 4.138 0 8.048 2.163 11.725 6.493 3.91 4.326 7.014 10.362 9.312 18.106 2.531 7.971 3.795 16.97 3.795 26.989 0 15.488-2.298 29.952-6.899 43.389-4.598 13.667-11.382 25.51-20.349 35.53-8.966 10.25-20.003 18.221-33.11 23.917-12.877 5.693-27.709 8.541-44.494 8.541-14.946 0-29.087-2.963-42.424-8.883-13.107-5.923-24.718-14.122-34.836-24.598-9.887-10.25-17.705-22.208-23.454-35.872-5.518-13.664-8.278-28.243-8.278-43.728 0-15.261 2.644-29.498 7.933-42.707 5.289-12.982 12.647-24.368 22.074-34.163 9.657-9.565 20.81-16.966 33.456-22.205 12.876-5.469 26.673-8.202 41.389-8.202 9.658 0 20.236 1.709 31.731 5.126 11.498 3.414 22.077 8.883 31.734 16.397l17.59-29.379c-6.669-5.238-14.602-9.795-23.802-13.667-9.197-4.099-18.854-7.174-28.97-9.222-9.888-2.051-19.316-3.075-28.284-3.075-20.235 0-38.975 3.53-56.22 10.592-17.245 7.059-32.307 16.966-45.183 29.722-12.877 12.525-22.879 27.331-30.007 44.413-7.128 17.309-10.692 36.099-10.692 56.371 0 20.496 3.794 39.629 11.382 57.392 7.588 17.994 18.050 33.597 31.387 46.806 13.336 13.437 28.857 23.914 46.563 31.43s36.675 11.274 56.91 11.274c20.235 0 38.974-3.645 56.219-10.931 17.248-7.062 32.192-17.082 44.838-30.064 12.877-12.982 22.88-28.243 30.010-45.779 7.126-17.539 10.691-36.672 10.691-57.395 0-16.627-2.874-31.203-8.624-43.731-5.747-12.525-13.565-22.205-23.453-29.040-9.888-6.832-21.27-10.246-34.147-10.246-10.346 0-19.085 1.936-26.211 5.808-7.13 4.099-11.958 10.589-14.486 19.472l-0.691 2.39c-6.438-8.883-13.68-15.146-21.729-18.79-7.818-3.642-15.751-5.466-23.799-5.466-11.957 0-23.454 3.19-34.491 9.565-10.807 6.608-19.66 15.718-26.558 27.331-6.898 11.616-10.348 25.283-10.348 40.998 0 14.349 2.644 27.443 7.933 39.286 5.518 12.074 13.221 21.754 23.109 29.040 9.887 7.29 21.614 10.931 35.181 10.931 6.209 0 11.842-1.024 16.901-3.072 5.289-1.824 9.887-4.099 13.797-6.835 3.907-2.733 6.896-5.466 8.966-8.198v14.006h46.563v-111.030zM299.344 307.018c-5.059 0-9.428-1.709-13.107-5.123-3.679-3.19-6.553-7.405-8.623-12.643s-3.104-11.046-3.104-17.421c0-6.835 0.92-13.21 2.759-19.133 2.069-5.693 4.944-10.362 8.623-14.006 3.909-3.418 8.508-5.126 13.796-5.126 5.748 0 10.577 1.709 14.486 5.126 3.909 3.414 6.897 7.971 8.968 13.664 2.070 5.923 3.104 12.301 3.104 19.133 0 6.605-1.034 12.525-3.104 17.763-2.070 5.469-5.173 9.795-9.312 12.982-3.909 3.19-8.738 4.784-14.486 4.784z" />
<glyph unicode="&#xe931;" glyph-name="empresa-colombiana" d="M555.066 479.469c36.387 0.010 71.53-13.050 98.816-36.723 27.29-23.686 44.861-56.374 49.373-91.891l25.034-197.030 0.563-5.747c0.97-13.376-0.595-26.829-4.627-39.674-4.611-14.685-12.342-28.25-22.688-39.77-10.342-11.52-23.069-20.726-37.312-27.046-14.243-6.314-29.69-9.59-45.312-9.587h-213.818c-15.622-0.006-31.069 3.248-45.312 9.558-14.25 6.31-26.966 15.53-37.315 27.043-10.348 11.52-18.104 25.085-22.719 39.77-4.614 14.688-6.001 30.198-4.063 45.453l25.063 197.030c4.512 35.501 22.074 68.176 49.344 91.859 27.27 23.677 62.406 36.746 98.784 36.755h86.189zM461.126 416.192c-17.981-1.619-35.056-8.845-48.688-20.685-15.574-13.53-25.61-32.179-28.189-52.461l-25.062-197.059c-0.81-6.387-0.214-12.87 1.718-19.024 1.936-6.157 5.162-11.856 9.501-16.688 4.339-4.829 9.683-8.691 15.658-11.338 5.968-2.646 12.451-4 18.998-3.997h213.85l4.906 0.246c4.861 0.509 9.616 1.795 14.093 3.779 5.971 2.65 11.322 6.512 15.658 11.341 4.33 4.826 7.568 10.506 9.501 16.656 1.933 6.157 2.499 12.662 1.686 19.056l-25.002 197.027c-2.579 20.294-12.624 38.96-28.218 52.493-13.648 11.84-30.726 19.046-48.72 20.653l-7.75 0.336h-86.189l-7.75-0.336zM597.299 717.159c0 46.327-38.179 83.895-85.283 83.9-47.114 0-85.315-37.57-85.315-83.9 0.006-46.326 38.205-83.869 85.315-83.869 47.101 0.006 85.277 37.547 85.283 83.869zM661.299 717.159c-0.006-81.085-66.835-146.804-149.283-146.81-82.458 0-149.312 65.722-149.315 146.81 0 81.092 66.854 146.841 149.315 146.841 82.451-0.006 149.283-65.753 149.283-146.841zM245.4 563.366c-0.007 25.088-20.708 45.421-46.22 45.421-25.506-0.006-46.181-20.339-46.188-45.421 0-25.091 20.678-45.446 46.188-45.456 25.516 0 46.22 20.362 46.22 45.456zM309.401 563.366c0-59.856-49.357-108.397-110.221-108.397-60.857 0.010-110.19 48.544-110.19 108.397 0.007 59.843 49.337 108.356 110.19 108.363 60.859 0 110.213-48.516 110.221-108.363zM871.021 563.366c-0.010 25.088-20.707 45.421-46.221 45.421-25.507-0.006-46.182-20.339-46.189-45.421 0-25.091 20.678-45.446 46.189-45.456 25.517 0 46.221 20.362 46.221 45.456zM935.021 563.366c0-59.856-49.357-108.397-110.221-108.397-60.858 0.010-110.189 48.544-110.189 108.397 0.006 59.843 49.338 108.356 110.189 108.363 60.861 0 110.214-48.516 110.221-108.363zM199.186 402.56c17.673 0 32.001-14.090 32.001-31.472 0-17.379-14.327-31.469-32.001-31.469h-11.969c-10.929 0-21.502-3.814-29.844-10.758-7.3-6.080-12.489-14.221-14.875-23.264l-0.844-3.933-13.031-76.893c-1.101-6.502-0.746-13.194 1.031-19.549 1.78-6.355 4.95-12.269 9.281-17.302 4.338-5.034 9.755-9.088 15.844-11.862s12.727-4.211 19.438-4.211h142.284c17.669 0 31.996-14.093 32.002-31.469 0-17.379-14.33-31.469-32.002-31.472h-142.284c-16.007 0-31.821 3.434-46.345 10.051s-27.404 16.262-37.751 28.275c-10.346 12.010-17.906 26.096-22.156 41.274-4.249 15.171-5.1 31.069-2.469 46.592l13.031 76.893c4.293 25.299 17.565 48.33 37.469 64.906 19.902 16.576 45.142 25.664 71.22 25.664h11.969zM836.79 402.56c26.080 0 51.318-9.088 71.222-25.664s33.174-39.574 37.469-64.877l13.030-76.922 0.813-5.84c1.546-13.651 0.435-27.478-3.28-40.752-4.253-15.178-11.811-29.264-22.157-41.274-10.349-12.013-23.229-21.658-37.75-28.275-14.525-6.618-30.339-10.051-46.346-10.051h-142.285c-17.67 0.003-32 14.093-32 31.472 0.006 17.376 14.33 31.469 32 31.469h142.285c6.71 0 13.347 1.437 19.437 4.211s11.507 6.829 15.843 11.862c4.333 5.034 7.501 10.947 9.283 17.302 1.776 6.355 2.131 13.014 1.030 19.517l-13.030 76.925c-1.802 10.605-7.376 20.25-15.718 27.197-8.342 6.944-18.915 10.758-29.846 10.758h-11.968c-17.674 0-32 14.090-32 31.469 0 17.382 14.326 31.472 32 31.472h11.968z" />
<glyph unicode="&#xe932;" glyph-name="devoluciones" d="M489.219 274.035c0 100.253-81.59 181.526-182.236 181.526s-182.237-81.274-182.237-181.526c0-100.253 81.59-181.526 182.237-181.526v-60.509c-134.196 0-242.983 108.362-242.983 242.035s108.787 242.035 242.983 242.035c134.195 0 242.982-108.362 242.982-242.035s-108.787-242.035-242.982-242.035v60.509c100.646 0 182.236 81.274 182.236 181.526zM747.389 518.758v-56.195l37.699 21.658v55.014l-37.699-20.477zM324.838 652.245l270.688-147.077 59.677 32.442-261.638 151.98-68.726-37.345zM455.882 723.42l261.638-151.983 35.626 19.382-264.282 150.534-32.982-17.934zM551.478 775.36l264.31-150.535 50.394 27.39-270.656 147.076-44.048-23.932zM960 591.706c0-16.707-13.597-30.253-30.374-30.253-16.774 0-30.371 13.546-30.371 30.253v9.542l-53.421-29.011v-105.507c-0.003-10.81-5.814-20.806-15.216-26.208l-98.413-56.547c-9.395-5.398-20.982-5.402-30.374 0-9.395 5.405-15.187 15.398-15.187 26.205v75.578l-60.746-33.002v-279.027l273.357 148.525v163.562c0 16.71 13.597 30.256 30.371 30.256 16.778 0 30.374-13.546 30.374-30.256v-181.526c0-11.069-6.080-21.258-15.84-26.56l-334.099-181.526c-8.73-4.739-19.229-4.931-28.122-0.502-10.534 5.248-27.030 13.846-42.592 22.781-14.189 8.144-31.808 18.89-41.229 28.275-11.862 11.814-11.862 30.966 0 42.781s31.088 11.814 42.95 0c2.451-2.445 10.992-8.23 24.083-15.926v279.146l-273.356 148.525v-115.466c0-16.707-13.598-30.253-30.373-30.253s-30.373 13.546-30.373 30.253v166.401c0 11.071 6.081 21.26 15.839 26.561l337.571 183.151c8.291 3.23 17.67 2.68 25.6-1.625l334.099-181.526c9.76-5.302 15.84-15.49 15.84-26.561v-60.51zM392 249.594c0 24.95-8.010 37.325-15.002 43.654-7.744 7.014-17.050 9.158-22.093 9.158h-102.468l17.125-16.157c9.631-9.091 10.081-24.266 1-33.907-9.093-9.645-24.293-10.093-33.938-0.998l-61.094 57.594c-4.808 4.534-7.531 10.858-7.531 17.469 0.002 6.608 2.723 12.934 7.531 17.469l61.094 57.594c9.644 9.091 24.845 8.643 33.938-1.002 9.091-9.642 8.643-24.845-1-33.936l-17.094-16.125h102.437c15.322 0 36.576-5.542 54.282-21.562 18.461-16.714 30.813-42.768 30.813-79.251 0-13.738-4.176-33.568-17.155-50.563-13.846-18.128-36.262-31.030-67.939-31.030h-40.718c-13.255 0-24 10.746-24 24s10.745 24 24 24h40.718c17.194 0 25.331 6.288 29.814 12.157 5.344 6.998 7.28 15.974 7.28 21.437z" />
<glyph unicode="&#xe933;" glyph-name="en-transito" d="M346.941 128c0 34.72-28.155 62.87-62.875 62.874-34.722 0-62.873-28.15-62.873-62.874 0.002-34.72 28.153-62.874 62.873-62.874v-63.997l-6.531 0.186c-64.869 3.29-116.893 55.286-120.184 120.154l-0.156 6.531c0 70.067 56.804 126.87 126.871 126.87l6.531-0.157c67.031-3.398 120.34-58.838 120.34-126.714l-0.189-6.531c-3.402-67.027-58.81-120.339-126.683-120.339v63.997c34.719 0.003 62.871 28.154 62.875 62.874zM787.072 126.87c0 34.72-28.154 62.87-62.874 62.874-34.72 0-62.874-28.15-62.874-62.874 0.003-34.72 28.154-62.874 62.874-62.874v-63.997l-6.531 0.189c-64.867 3.286-116.893 55.283-120.182 120.15l-0.157 6.531c0 70.067 56.803 126.87 126.87 126.87l6.531-0.154c67.030-3.402 120.339-58.842 120.339-126.717l-0.186-6.531c-3.402-67.027-58.81-120.336-126.685-120.339v63.997c34.72 0.003 62.87 28.157 62.874 62.874zM64 160c0 17.674 13.227 32 29.544 32s29.543-14.326 29.543-32h55.298c16.316 0 29.544-14.326 29.544-32s-13.227-32-29.544-32h-55.298c-32.633 0-59.087 28.653-59.087 64zM623.434 160c16.317 0 29.542-14.326 29.542-32s-13.226-32-29.542-32h-221.578c-16.317 0-29.542 14.326-29.542 32s13.226 32 29.542 32h221.578zM64 256v50c0 35.347 26.454 64 59.087 64h413.611l94.314 238c0 35.346 26.454 64 59.088 64h211.824c28.432 0 52.838-21.948 58.077-52.218l-16.762-448c6.81-39.382-21.085-75.782-58.077-75.782h-38.259c-16.314 0-29.542 14.326-29.542 32s13.229 32 29.542 32h38.259l16.762 448h-211.824l-94.317-238c0-35.347-26.454-64-59.085-64h-413.611v-50c0-17.674-13.227-32-29.543-32s-29.544 14.326-29.544 32zM897.104 544c17.674 0 32-14.326 32-32s-14.326-32-32-32h-121.53l-31.437-64h168.685c17.674 0 32-14.326 32-32s-14.326-32-32-32h-168.685c-47.382 0-78.33 49.693-57.44 92.218l31.44 64c10.758 21.904 33.034 35.782 57.437 35.782h121.53zM352 512c17.674 0 32-14.326 32-32s-14.326-32-32-32h-256c-17.673 0-32 14.326-32 32s14.327 32 32 32h256zM448 608c17.674 0 32-14.326 32-32s-14.326-32-32-32h-256c-17.673 0-32 14.326-32 32s14.327 32 32 32h256zM576 704c17.674 0 32-14.327 32-32s-14.326-32-32-32h-256c-17.673 0-32 14.327-32 32s14.327 32 32 32h256z" />
</font>
</defs>
</svg>
